<?xml version="1.0" encoding="utf-8"?>
<!-- Generator: Adobe Illustrator 25.4.1, SVG Export Plug-In . SVG Version: 6.00 Build 0)  -->
<svg version="1.1" id="Layer_1" xmlns="http://www.w3.org/2000/svg" xmlns:xlink="http://www.w3.org/1999/xlink" x="0px" y="0px"
	 viewBox="0 0 271 415" style="enable-background:new 0 0 271 415;" xml:space="preserve">
<style type="text/css">
	.st0{fill:#FFFFFF;}
</style>
<g id="rgOMMw_00000132060551001306039980000012420367709906229931_">
</g>
<g id="NPbZA2_00000004515474072894541160000000649455084454835859_">
	<g>
		<path d="M133,229.5c-2.1,2.2-4.2,0.7-6.3,0.2c-2.1-0.5-4.1-1-6.2-1.6c-0.1,1.1-0.2,2.4-0.3,4.4c1.4-0.4,2.8-0.8,4.2-1.1
			c-0.1,0.2-0.2,0.4-0.3,0.7c1.9,0.6,3.7,1.2,5.6,1.8c0.7,0.2,1.4,0.3,2,0.6c3.7,1.9,7.5,3.6,11,5.9c3.2,2.1,5.9,5,8.8,7.5
			c0.5,0.4,0.9,1,1.4,1c5.7,0.1,9.2,4.5,13.8,6.8c2.5,1.3,5.4,2.2,6.9,5.1c0.3,0.6,2.6,0.9,3.5,0.4c2.9-1.6,5.2-0.9,7.5,1
			c2.7,2.3,5.3,4.5,7.4,6.3c0,2.1,0,3.7,0,5.6c-0.7-0.4-1.3-0.8-1.8-1.2c-5.5-4.6-11.1-9-18.7-10c-1.9-0.2-3.7-1.5-5.6-2.3
			c-2.2-1-3.6-0.8-4.1,1.9c-1.4,6.7-2.9,13.4-4.5,20c-2,8.4-4.4,16.7-6.3,25.2c-0.9,4-0.8,8.1-1.4,12.2c-0.2,1.4-1.1,2.7-1.6,4
			c-0.4,1-1.3,2.2-1.1,2.9c1.7,4.1,0.3,8-0.5,11.9c-2.9,14.4-6,28.8-9.2,43.2c-1.5,6.6-3.2,13.1-5,19.6c-0.2,0.8-1.3,1.4-2,2.1
			c-0.3-1-1-2-0.9-2.9c0.8-5.1,1.7-10.1,2.8-15.1c0.4-1.9,1.6-3.7,2.1-5.6c1-3.5,1.8-7,2.5-10.5c1.8-9.1,3.5-18.2,5.3-27.3
			c0.6-3.1,1.6-6.2,2.4-9.3c0.1-0.5,0.3-1,0.3-1.5c-0.3-10.9,4-21.1,5.2-31.7c0.6-4.8,2.7-9.4,3.7-14.1c1-4.9,1.1-10,2-14.9
			c0.5-3.1,1.7-6,2.3-9c0.2-1.3,0.1-3.2-0.7-4c-3.5-3.7-7.3-7.1-11-10.7c-1.6-1.5-5.6-2.7-7.5-1.6c-0.6,0.3-1.2,1.3-1.3,2.1
			c-1.2,6.2-2.1,12.5-3.6,18.7c-1.1,4.9-3,9.6-4.2,14.4c-0.9,3.8-1.4,7.7-2,11.5c-0.1,0.9-0.3,1.7-0.6,3.4c-1.5-2.3-3-3.6-1.3-5.8
			c0.5-0.7,0.9-1.9,0.6-2.5c-1.5-3.9-0.1-7.6,0.4-11.3c0.3-2.2,1-4.7,2.4-6.4c2.2-2.6,1.3-4.5-0.3-6.5c3.9-4.2,6.5-16.5,3.9-19
			c-6,10.5-7.6,22.2-10,33.8c-0.9-0.1-1.8-0.3-2.8-0.4c-0.2,0.4-0.5,0.9-0.5,1.3c-0.2,2.4,0,4.9-0.4,7.2c-0.5,2.5-1.8,4.9-2.4,7.4
			c-0.2,0.8,0.4,2.5,0.8,2.6c1.9,0.2,1.5,1.4,1.7,2.6c0.3,2.3,0.9,4.7,1.4,7.2c2.3-1,3.2-1.9,2-4.2c-0.6-1.3-0.1-3.1,0.2-4.7
			c3.8,5.6,3.4,5.5,1.8,12.4c-2,8.6-3.3,17.3-4.9,26c-1.5,8.1-3.2,16.2-4.6,24.3c-0.5,3.2-0.4,6.5-0.6,9.8c0,0.7,0.1,1.5-0.2,2
			c-3.2,4.7-1,10.6-3.5,15.4c-0.4,0.7,0.8,2.5,1.6,3.5c0.6,0.9,1.7,1.6,2.5,2.4c-0.1,0.3-0.2,0.6-0.3,0.9c-1-0.1-2.1-0.1-3.1-0.4
			c-1.8-0.6-2.6-0.3-2.8,1.7c-0.9,6.9-1.3,7.3-8.2,6.6c-2.1-0.2-4.2-0.7-6.2-1.2c-0.5-0.1-1.2-0.6-1.3-1c-0.2-2.6-1.6-2.5-3.6-1.8
			c-2,0.8-2.9,0.2-2.2-2.1c0.3-0.9,0-2-0.4-3.3c-2.2,5.2-6.2,5.3-10.6,4.4c-0.6-0.1-1.6-0.3-1.7-0.6c-0.2-0.8-0.3-1.9,0.1-2.5
			c0.9-1.2,2.2-2.1,3.1-3.3c2.4-2.9,4.8-5.9,7.2-8.8c0.9-1.1,1.9-2.3,3-3.3c3.3-3.1,3.2-5.4-0.7-7.5c-10.4-5.6-21.2-10.1-32.9-12.3
			c-3.7-0.7-7.2-2.5-10.5-4.4c-3.6-2.1-4.5-8.4-2-12.1c1.6-2.4,2-4.4,1.3-7.3c-0.6-2.4,0.4-5.1,0.8-7.7c1.8-10.1,5.6-19.3,11.3-27.8
			c0.6-0.8,0.9-1.8,1.5-3.2c-2.4,0.7-4.2,1.3-6,1.6c-0.8,0.1-1.7-0.7-2.6-1.1c0.3-0.7,0.6-1.4,1-2c1.4-2.1,2.8-4.3,4.2-6.3
			c-3-0.7-5.4-1.1-7.8-1.8c-2.2-0.6-2.2-2.1-0.7-3.3c2.1-1.6,4.4-3.4,6.9-4c3.7-1,6.8-2.8,9.7-5.2c1.3-1.1,3.3-1.3,4.9-2.2
			c1.5-0.8,2.8-2.3,4.4-3c1.5-0.7,2.8-0.4,4.3-2.5c3.8-5.6-0.5-8.6-2.7-12.1c-3.1-4.9-6.7-9.2-6-15.8c0.3-3.2-1.1-7.1-4.1-9.9
			c-1.7-1.5-2.5-3.9-4-5.6c-2.3-2.6-5-4.9-7.5-7.4c-0.4-0.4-0.5-1.2-0.9-1.5c-0.7-0.5-1.7-0.8-2.5-0.9c-0.7,0-1.5,0.5-2.2,0.7
			c-2.4,0.5-4.4,0.6-6-2.1c-0.8-1.4-3.3-1.8-5.1-2.5c-1.4-0.6-3-0.8-4-1.8c-0.8-0.7-0.8-2.3-1.2-3.4c-1.3-3.8-0.5-8.1-3-11.6
			c-0.4-0.6-1.2-1-1.3-1.6c-0.2-1-0.4-2.1,0-3c0.7-1.8,2.1-3.3,2.7-5.1c0.8-2.4,1.7-4.5,3.5-6.4c2-2.1,3.2-5,4.4-7.7
			c1.2-2.8,2.3-2.8,4-0.3c0.5-0.7,0.8-1.2,1.3-1.5c0.6-0.5,1.3-1.2,1.9-1.1c0.5,0.1,1.1,1.1,1.3,1.7c1.3,4.5,3.6,5.2,7.3,2.1
			c2-1.6,3.9-2.3,6.3-0.5c0.7,0.5,2.1,0.8,2.7,0.5c2.7-1.7,5.2-1.1,7.7,0.3c0.7,0.4,1.7,0.4,2.8,0.7c-0.2-5,2.5-8.6,4.7-12.4
			c0.5-0.8,0.4-2.3,0-3.1c-2.3-4-1-7.8,1.8-10.2c8.1-6.9,8.5-15.7,7.6-25.1c-0.7-8.1,0.7-15.6,4.5-23.1c3.4-6.4,6.5-13.2,6.9-20.7
			c0.2-2.6,1.3-5.3,2.3-7.8c2.3-5.8,1.9-11.1-1.9-16.3c-3.9-5.5-7.5-11.2-8.9-18c-0.3-1.6-1.4-3.1-2.2-4.6
			c-3.1-6.2-0.1-9.7,3.5-14.1c1.4-1.7,3.4-3,5.8-5.1c-2.6,7.1,0.8,12.5,2.9,18.3c0.4-0.1,0.7-0.1,1.1-0.2
			c-0.9-6.1-1.9-12.1-2.7-17.5c2.1,0.1,3.9,0.1,5.6,0.2c0.5,0,1.1,0.4,1.4,0.8c0.3,0.5,0.5,1.2,0.4,1.7c-0.7,5.2,1.8,6.4,7.3,3.9
			c1.2-0.5,2.4-1,3.7-1.3c2.4-0.5,3.8,0.1,4.7,3c1.6,4.9,4.5,9.4,6.4,14.2c3,7.8,8.2,14.9,8.5,23.7c0.1,1.6,1.8,3.1,2.4,4.8
			c2,5.9,3.8,11.8,5.8,17.7c1.1,3.2,2.1,6.5,3.4,9.6c0.4,1,1.5,1.8,2.7,3.2c0.8-3.1,1.5-5.4,2.1-7.8c1.2-5.1,2.4-10.2,3.5-15.3
			c2.2-10.2,4.2-20.5,6.6-30.6c1.7-7,4-13.9,6-20.8c0.3-0.9,0.6-1.7,0.8-2.6c0.7-3.4,1-3.6,4.1-2.2c2.1,0.9,4.3,1.8,6.3,2.9
			c2.3,1.3,5.7,2,3.5,6.4c0.4,0.1,0.8,0.2,1.3,0.3c0.7-1.2,1.3-2.3,2-3.5c0.4,0.1,0.8,0.2,1.2,0.2c0.1,1.1,0.5,2.2,0.3,3.2
			c-1.8,9-3.6,17.9-5.6,26.8c-2.1,9.2-2.7,18.7-7,27.5c-1.8,3.7-1.8,8.2-2.8,12.3c-1.6,6.2-3.4,12.4-5.1,18.6
			c-0.9,3.6-1.8,7.2-2.3,10.9c-0.1,0.6,1.2,2.1,2,2.2c1.9,0.1,3.7-0.4,5.6-0.6c3.2-0.3,6.4-0.5,9.5-0.9c1.1-0.2,2.9-1,3.1-1.8
			c0.4-2-1-2.8-3-2.7c-0.9,0.1-1.9,0-2.8-0.7c1.5,0,3,0.1,4.5,0c2-0.1,3-1,2.2-3.4c-1.9,0-3.7,0-6.2,0c2.1-1.5,3.6-2.6,5.4-3.9
			c0.4,1,0.7,1.8,1.4,3.5c1.1-3.7,2-6.6,2.9-9.4c1.1-3.6,2.6-7.2,3.4-10.8c0.5-2.3,0.5-4.9-0.2-7c-0.3-1-2.8-1.3-4.7-2.1
			c0.8-0.5,1.5-1.1,2.2-1.4c4.8-1.8,6.6-5.6,7.6-10.3c0.2-1.2,0.9-2.3,1.3-3.5c1.3-4.1,2.7-8.1,4-12.2c1.1-3.5,1.9-7,3-10.4
			c0.2-0.8,0.9-1.4,1.4-2.1c0.4,0.1,0.7,0.2,1.1,0.2c0,1.1,0.2,2.2,0,3.2c-2.3,8.6-4.8,17.2-7.2,25.9c-1.8,6.7-3.6,13.4-5.4,20.2
			c-2,7.5-4,15-5.8,22.5c-1.1,4.6-1.6,9.2,1.4,13.6c1.4,2.1,1.7,5.1,2.3,7.7c2.2,8.4,6.3,15.8,10.2,23.4c1.8,3.5,2.7,7.6,3.9,11.4
			c2.1,6.7,4,13.5,6.4,20.1c3.7,10.7,7.7,21.4,11.6,32.1c2.5,6.7,5.4,13.2,7.8,19.9c2.6,7.2,4.6,14.5,7.4,21.6
			c2.8,7,6.4,13.6,9.2,20.6c2.5,6.2,4.5,12.7,6.5,19.1c0.3,0.8-0.4,2.1-0.8,3c-1.9,4.1-4,8.1-5.9,12.2c-1.2,2.5-4.8,4.6-7.6,4.6
			c-3.7,0-7.4,0.4-11.1,0.6c-2.9,0.1-5.8,0.3-8.7-0.1c-1-0.1-2.1-1.5-2.7-2.5c-5.7-10.1-9.3-21.2-13.9-31.8
			c-0.9-2.2-3.2-3.8-4.8-5.7c-1.8-2-3.7-4-5.5-6.1c0.3-0.4,0.7-0.8,1-1.1c1.7,1.4,3.6,2.7,5.1,4.3c2.6,2.8,4,2.7,5.4-0.7
			c1.3-3,2.4-6.1,3.5-9.2c0.3-0.8-0.1-1.8-0.1-2.7c-0.8,0.4-1.9,0.7-2.5,1.3c-1,1-1.6,2.3-2.6,3.4c-0.4,0.4-1.2,0.7-1.8,0.7
			c-0.2,0-0.7-0.9-0.7-1.4c-0.3-3.4-1.9-5.3-5.3-6.8c-3-1.4-5.3-4.5-7.9-6.9c-4.1-3.8-8.2-7.7-12.6-11.8c-0.3,1-0.6,1.8-1.1,3.1
			c-0.7-0.9-1.3-1.7-2-2.5c-0.6-0.6-1.4-1.8-1.9-1.6c-3.5,0.8-5.7-1.2-7.5-3.7c-0.9,0.8-1.5,1.3-2.1,1.9c-0.4-0.8-1.2-1.5-1.3-2.3
			c-0.4-3.8-3-5.6-6-7.2c-3-1.6-5.5-4-8.4-5.8c-1.4-0.9-3.1-2-4.7-2.1c-2.4-0.2-3.7-1.3-5.2-3.1c-2.3-2.9-5.2-5.5-7.7-8.3
			c-1.2-1.4-2.2-3.1-3.2-4.7c-0.4-0.6-0.6-1.4-1-2.5c-0.4,0.7-0.6,0.9-0.6,1c0.1,1.1,0.2,2.3,0.2,3.4c-1.2-0.4-2.7-0.6-3.6-1.4
			c-0.6-0.5-0.5-2-0.4-3c0.1-1.1,0.7-2.1,1-3.2c-1.4-0.2-2.9-0.7-4.3-0.5c-1.5,0.2-2.9,1.1-3.9-1.5c1.9,0.1,3.6,0.4,5.2,0.3
			c0.8-0.1,1.6-1,2.4-1.5c-0.8-0.5-1.6-1.3-2.5-1.4c-1-0.1-2.2,0.3-3.2,0.6c-3.8,1.1-4.8,0.6-6.4-3.9c1,0.3,1.6,0.6,2.3,0.7
			c1.9,0.3,3.9,0.6,5.8,0.8c0.3,0,1.1-0.8,1.1-0.8c-0.9-1.5-1.6-3.2-2.9-4.3c-0.6-0.5-2.7-0.4-3.2,0.2c-2.2,2.4-5.1,1.3-7.6,1.5
			c-2.1,0.1-2-1.6-0.7-3.2c1.7-2-0.6-3.2-1.4-4.6c-0.1-0.1-2,0.5-2.6,1.1c-0.4,0.4-0.1,1.6,0,2.4c0.1,0.8,0.2,1.7,0.5,2.5
			c0.3,0.8,0.7,1.7,1.3,2.2c2,2,4,3.9,6.1,5.7c2.2,1.9,4.5,3.9,6.9,5.6c1.4,1,2.5,1.8,2.1,3.8c-0.5,2.6-0.5,5.2,1.9,7.2
			c0.5,0.4,0.4,1.6,0.6,2.5c-0.8-0.4-1.7-0.6-2.4-1.1c-0.9-0.7-1.8-1.6-2.6-2.4c-0.5,1.2-0.9,2.4-1.6,3.4c-0.6,0.9-1.5,1.9-2.5,2.2
			c-4.2,1.4-5.9,4.7-3.8,9.1c2-1.9,4.1-3.5,5.7-5.5c2.2-2.7,8.2-3.7,10.6-0.9C124.1,227.5,128.2,229,133,229.5z M152.8,128.3
			c-1.8,0.5-3.7,0.9-2.4,3.6c0.1,0.2-0.4,0.8-0.6,1.2c-1.4,2.5-1.4,7.1,0.4,8.6c2.4,2,1.8,4.1,0.5,6.1c-1.3,2-1.1,3.4,1.2,5.7
			c1.4-6.3,2.7-11.9,4-17.6c-0.4-0.2-0.7-0.3-1.1-0.5c-0.9,1.5-1.8,2.9-2.7,4.5c-1.9-1.9-0.7-3.7-0.2-5.7
			C152.4,132.3,152.5,130.2,152.8,128.3c0.7-1.7,1.6-3.3,2.6-5.2C151.7,123.8,151.5,124.4,152.8,128.3z M91.5,122.7
			c0.7,0.2,1.3,0.4,2.4,0.7c0.5-3.2,0.9-6.3,1.4-9.6c3.5,0.8,1-2.8,2.7-4.7c1.6,1.3,3.1,2.7,4.7,4c-0.1,0.3-0.2,0.6-0.3,0.9
			c-3.6-0.2-4.4,2.2-4.8,4.7c-0.3,2.2-0.3,4.4-0.5,6.6c-0.2,2.2-0.4,4.5-0.5,6.7c-0.1,0.8,0,1.7,0.2,2.6c0,0.2,1.1,0.4,1.2,0.3
			c0.6-0.6,1.2-1.3,1.4-2.1c0.4-1.8,0.3-3.8,0.9-5.6c0.9-2.7,1.6-5.9,3.4-7.9c4.1-4.5,4.6-6.1,1.5-11.2c-1.1-1.8-1.9-3.8-2.8-5.7
			c0.2-0.1,0.4-0.2,0.6-0.4c0.7,0.7,1.4,1.3,2.4,2.2c1.3-3.1-0.6-4.4-2.3-5.4c-1.8-1-1.9-2.2-1.9-3.9c0-1.8-0.7-3.6-1.1-5.4
			c-0.5-2.5-1.6-5.1-1.3-7.5c0.4-3.4,1.8-6.8,2.7-10.2c0.3-1.1,0.5-2.3,0.8-3.5c-0.4-0.1-0.9-0.3-1.3-0.4c-0.7,2-1.7,4-2.2,6.1
			c-0.6,2.5-0.5,5.3-1.4,7.7c-2.3,6.5-4.8,13-7.5,19.4c-2.7,6.3-3.9,12.7-3,19.5c0.2,1.2,0.4,2.3,0.5,3.5c1-4.4,1-8.8,2.2-12.8
			c2-6.8,4.8-13.4,7.3-20.1c0.2-0.6,0.3-1.3,0.5-2c1.2,1.3,1.4,1.6,1.4,1.8c-1.2,4.4-2.4,8.9-3.8,13.3c-0.9,2.9-2.6,5.5-3.1,8.5
			C91.2,115.9,91.6,119.4,91.5,122.7c-0.4,0.7-1.4,1.5-1.3,1.8c0.8,1.5,1.8,2.9,2.7,4.3c0.4-0.2,0.8-0.5,1.1-0.7
			C93.2,126.3,92.4,124.5,91.5,122.7z M80.1,150.6c-3.8,2.9-3,7.5-3.7,11.3c-0.6,3.7,0.6,4.1,4.5,3.3c3.2-0.6,6.5-1.1,9.7-1.5
			c2.1-0.3,3.5-1.3,3.3-3.5c-0.2-1.6-0.5-3.5-1.5-4.8c-0.9-1.3-2.6-1.9-4.1-2.9c0.9-1.6,2.7-1.7,4-0.7c3.4,2.9,7,5.8,6,11.2
			c-0.1,0.6-0.2,1.4,0.1,1.8c0.7,0.8,1.6,1.3,2.4,1.9c0.5-0.7,1.5-1.5,1.5-2.1c-0.3-1.9-1-3.8-1.4-5.7c-0.5-2.1-0.9-4.1-1.3-6.2
			c0.4-0.1,0.7-0.2,1.1-0.3c1.2,2,2.5,4.1,3.7,6.1c0.2-0.2,0.5-0.3,0.7-0.5c-0.9-2.1-2.1-4.2-2.5-6.4c-0.6-3-3.1-3.2-5.3-3.7
			c0.7-2.2,5-2.5,2.7-5.7c-1,0.6-1.9,1.1-2.8,1.6c-0.2-1-0.2-2.1-0.6-3c-0.3-0.8-1-1.5-1.8-2.5c-1.6,2.5-2.8,4.6-4.3,6.5
			c-1.4,1.8-3,3.7-5.2,3.6c1.5-1.9,3.3-3.8,4.8-5.9c3.2-4.6,3.6-14.3,0.6-13.6c-0.1,0.8-0.2,1.6-0.3,2.6c-1.2-0.3-2.1-0.5-2.8-0.7
			c-1.2,3-1.8,6.4-3.7,8.5C80.8,142.6,81.2,146.9,80.1,150.6L80.1,150.6z M228.7,257.2c-0.1-0.2-0.2-0.5-0.3-0.7
			c0.4-0.7,0.8-1.4,1.2-2.1c0.5-0.9,1.4-1.9,1.2-2.6c-1.4-4.8-3-9.5-4.8-14.2c-2.9-7.5-5.7-15.1-9.3-22.3c-1.2-2.4-2.2-4.5-3-7.1
			c-2.8-9.6-6.7-18.9-10.2-28.3c-0.2-0.6-0.3-1.2-0.5-1.7c-1-3.5-1.6-7.1-3.1-10.3c-1.8-4-2.5-8.8-6.6-11.6
			c-0.3-0.2-0.3-1.1-0.4-1.7c-0.9-4.7-0.9-9.6-3.8-13.8c-1.1-1.5-2-3.4-2.3-5.2c-0.8-4-4.4-5.5-6.6-8.1c-0.3-0.3-1.3-0.2-1.9-0.1
			c-1.2,0.3-2.3,0.7-3.4,1.1c-4,1.1-4.4,0.9-4.9-3.3c-1.5-0.4-3-1-4.6-1.3c-0.6-0.1-1.6-0.1-1.8,0.3c-0.3,0.5-0.2,1.4,0.1,1.9
			c0.5,1.1,1.6,1.9,1.9,3c1.6,5.8,3.1,11.6,4.5,17.2c0.9,0.7,2.2,1.3,2.6,2.2c2.2,5.7,4.1,11.5,6.1,17.3c0.3,0.9,0.1,2.1,0.1,3.1
			c-1-0.1-2.1-0.1-3.4-0.2c0.7,1.2,2.1,2.4,2.1,3.6c-0.3,3.7,2.2,3.8,4.9,4.3c-0.2,1.1-0.3,2.3-0.5,3.4c4.3,2,5.7,9.2,2.9,14
			c-2.6-0.7-5.1-1.3-7.8-2c0.5,3.5,1.8,4.5,4.9,4.1c1.7-0.3,3.1,0.1,2.1,1.8c-1.6,2.7-1.1,5.5-1.6,8.2c-0.2,0.8-0.7,1.6-1.3,2.2
			c-1.8,1.8-1.6,2.7,1.3,4.2c1.7-6.2,3.4-12.4,5.1-18.5c2.9,2.9,6.1,13.1,5.3,15.4c1.9,3.5,3.9,6.6,5.2,9.8c3.2,7.7,6,15.5,9,23.2
			c1.7,4.3,3.3,8.7,5.1,13.5c2.5-2.2,2.6-3.7,1.7-6c-0.7-1.9-0.6-4.6,0.2-6.5c0.3-0.8,3.4-0.9,5.1-0.6c3.8,0.7,5.8,3.6,6.6,7.1
			c0.2,1.1-1,2.7-1.9,3.9c-0.9,1.2-2.5,1.8-3.1,3.1c-1.2,2.3-2,4.9-2.7,7.4c-0.2,0.9,0.3,2.2,1,2.9c1.6,1.8,3.4,3.3,5.3,4.9
			c1.4,1.2,2.9,2.2,4.5,3.2c0.8,0.5,1.7,0.6,2.6,0.8c-0.1,0.4-0.1,0.9-0.2,1.3c-2.8-0.3-5.6-0.2-8.3-0.9c-2.2-0.6-4.1-2.1-6.2-3.1
			c-0.7-0.3-1.7-0.1-2.5,0.1c-0.2,0.1-0.3,1.4,0,1.8c0.5,0.6,1.3,0.9,2.1,1.2c1.4,0.4,2.9,0.6,4.3,0.9c1.5,0.3,3,0.8,4.5,0.9
			c2.8,0.3,5.4,0.8,6.6,4.4c-1.4,0.2-2.6,0.3-3.8,0.7c-0.8,0.2-2.1,0.9-2,1.2c0.3,3.4-1.5,3.4-3.9,2.7c-0.5-0.1-1.1,0.3-1.7,0.3
			c-3.1,0-2.7,3.4-4.6,4.6c-0.8,0.5-1.8,2.1-1.5,2.9c0.3,1,1.7,1.8,2.7,2.5c0.5,0.3,1.3,0.3,2.3,0.4c-0.5,2.6-1,4.9-1.6,7.7
			c3.3-1.1,5.5-1.3,3.5,2.7c-0.2,0.5,0.8,1.5,1.2,2.3c0.3-0.1,0.7-0.2,1-0.3c0.7-5,4-9.8,1.1-15.5c-1,1.1-1.7,1.8-2.4,2.5
			c-0.2-0.1-0.4-0.2-0.7-0.3c0.3-2.3,0.6-4.6,1.1-7.8c1.9,1.1,3.8,1.5,4.4,2.7c1.7,3.2,3,6.6,4.2,10c1.2,3.1,2.2,3.8,5.5,3.2
			c2.8-0.6,5.5-1.2,8.2-1.9c1.9-0.5,3.8-1.1,5.7-1.7c-0.6-1.9-1.1-3.9-1.8-5.7c-1.9-5-3.8-10-5.7-15c-1.1-2.9-2.3-5.8-3.7-8.6
			c-0.9-1.8-2.3-3.4-3-5.3c-0.8-2.2-1.1-4.6-1.7-6.9C233.2,257.2,232.2,255,228.7,257.2z M121,197.3c0.3-0.1,0.7-0.2,1-0.4
			c1.8-7.4,3.6-14.8,5.3-22.2c1.7-7.2,3.5-14.5,5-21.7c1-4.8,1.7-9.7,2.4-14.6c0.5-4.1,1.7-8.4,1-12.3c-1.4-6.9-3.8-13.7-6.2-20.4
			c-1.7-4.9-4.2-9.6-6.1-14.4c-2.5-6.4-4.9-12.8-7.4-19.2c-0.3-0.9-1-1.6-1.4-2.4c-0.3,0-0.6,0-0.9,0.1c-0.4,1.2-1,2.3-1.1,3.5
			c-0.2,2.1-0.1,4.2-0.1,6.3c0.1,5.1,1,10.3-3,14.6c-0.4,0.4-0.6,1.1-0.6,1.7c-0.1,3.9-0.3,7.8-0.1,11.6c0.4,5.1,0.7,10-2.1,14.7
			c-5.6,9.3-5.7,18.9-1.4,28.6c1.8,4.1,4.7,8,5.7,12.3c1.6,6.9,2.8,14,3,21.1C114.3,190.4,118.7,193,121,197.3z M150.7,160.8
			c-0.6,2.1-1.3,3.7-1.6,5.4c-1.3,9.6-2.3,19.3-3.9,28.9c-1.1,6.8-3.2,13.4-4.8,20.1c-0.4,1.6-0.6,3.4-1.2,4.9
			c-0.7,1.6-0.3,2.3,1.3,2.9c2.5,0.8,5,1.5,7.2,2.9c5.3,3.4,10.3,7.2,15.4,10.9c1.3,0.9,2.4,0.8,2.6-0.9c0.3-2,0.8-4,0.6-6
			c-0.8-6.6-0.3-13,1.7-19.4c1.4-4.5,2-8.9-0.5-13.4c-2.3-4.3-4-8.9-6.1-13.3c-0.4-0.8-1.3-1.4-2.3-2.5c-0.6,2-1.1,3.3-1.5,4.6
			c-0.4-0.1-0.8-0.1-1.2-0.2c0.1-1.1,0.2-2.3,0.4-3.4c0.3-1.6,1.4-3.3,1-4.6c-1.6-5.2-3.6-10.2-5.5-15.3
			C152.3,161.8,151.6,161.5,150.7,160.8z M60,343c2.4-3.7,4.8-7.2,7.2-10.9c-1.8-0.2-3.1-0.3-4.6-0.5c0.9-1.6,2-2.6,2.2-3.8
			c0.6-3.5,2.9-5.5,5.5-7.6c1.4-1.1,2-3.1,3.1-4.5c1.1-1.4,2.3-2.8,3.5-4c1.1-1.1,2.3-2.1,3.5-3.2c-2.6,0.2-4.8,1.7-6.5,1.3
			c-3.2-0.8-5.3,0.5-7.6,2c-0.1,0.1-0.4-0.1-0.6-0.2c-0.2-1-0.3-2-0.5-3c-1.1,0.5-1.7,1.1-1.9,1.9c-0.4,2-0.7,4-0.8,6
			c-0.2,3-1.4,5.3-3.6,7.3c-1.2,1.1-1.8,2.7-2.5,4.3c-1.1,2.4-1.9,4.9-2.6,6.8c-2.1-0.6-3.8-1.7-4.7-1.2c-3,1.4-7.3,10.8-6.7,14.2
			c0.1,0.7,0.7,1.3,1.1,1.9c0.5-0.6,1.3-1.2,1.5-1.9c0.3-1,0.3-2.1,0.4-3.2c0.3,0,0.6,0,0.9,0c0.4,1.2,0.6,2.6,1.4,3.5
			c1,1.3,2.6,3.2,3.6,3c3.8-0.8,5.3,1.1,6.3,4.2c0.1,0.3,0.4,0.6,0.8,1c0.2-1.3,0.1-2.7,0.7-3.4c1.2-1.5,7.6-1.6,9.2-0.3
			c2.9,2.3,5.7,4.7,8.5,7.1c0.1,0.1,0.2,0.3,0.3,0.6c-0.6,0.6-1.2,1.1-1.9,1.8c0.6,0.4,1,0.8,1.4,1c7.3,3.1,14.4,6.4,20.1,12
			c0.5,0.5,1.3,1.1,1.8,0.9c1-0.3,1.9-1.1,2.9-1.6c-0.5-0.7-0.9-1.6-1.6-2.1c-1-0.8-2.2-1.4-3.3-2.1c0.1-0.2,0.3-0.5,0.4-0.7
			c1.3,0.1,2.6,0.3,4.8,0.5c-2.5-3-4.3-5.3-6.3-7.5c-4.5-5-9-10-13.9-14.7c-2-1.9-4.7-3.6-8.3-3.1c1.9,3,6.5,3.1,6.3,8.1
			c-4.2-1.7-8.2-3.3-12.1-4.8c0.1-0.3,0.2-0.5,0.3-0.8c1.2,0.3,2.3,0.5,3.8,0.8c-1-2.8-3.1-2.8-4.5-1.9c-2.3,1.6-3.8,2.4-4.6-1.2
			C62.3,344.2,61.1,343.8,60,343z M94,351.6c0.6-1.7,0.9-2.3,1.1-2.9c1.5-6.9,3-13.7,4.5-20.6c0.7-3.4,1.4-6.9,1.9-10.4
			c0.3-1.9-0.4-3-2.7-2.9c-1.9,0.1-3.9,0.1-5.7-0.6c-1.9-0.8-3-0.2-4.2,1.2c-2.3,2.6-4.6,5-8.3,5.6c-1.9,0.3-3.3,1.6-3.7,3.9
			c-0.3,1.4-1.3,2.7-2.3,3.8c-2.8,3.1-5.8,6.1-8.6,9.2c-0.7,0.8-0.9,2.1-1.3,3.1c1.2,0.3,2.3,0.8,3.5,0.8c1,0,1.9-0.5,2.9-0.6
			c1.9-0.3,3.8-0.6,5.8-0.9c-0.1,0.3-0.2,0.6-0.4,0.9c0.6,1,1,2.2,1.9,2.8c2.4,1.6,4.9,3,7.5,4.4c0.6,0.3,1.4,0.2,2.1,0.3
			c-0.2-0.7-0.1-1.8-0.6-2.1c-2-1.4-4.2-2.6-6.4-3.9c-0.7-0.4-1.4-0.7-2.1-1c0.8-0.8,1.5-1.1,2.1-1C86.9,342.1,90.4,346.2,94,351.6z
			 M73,227.6c0.3,0.3,0.7,0.6,1,0.9c-1.1,2.1-2.5,4-3.2,6.2c-0.8,2.4-2.1,6-1,7.1c1.9,2.1,5.3,2.7,8.2,4c-1.4-2.9-5.1-2.8-6.4-6.5
			c2.3,0.6,3.9,1.4,5.5,1.4c1.6,0,3.3-0.5,4.8-1.1c0.5-0.2,1.1-1.4,1-2c-0.1-0.5-1.2-1-1.8-1.1c-2.2-0.3-4.5-0.4-6.8-0.6
			c0-0.3,0-0.6-0.1-1c3.4-0.3,6.7-0.5,10.4-0.8c-0.1-0.1,0.1,0,0.1,0.1c0.8,2.5,2.9,2,4.8,2.2c0.4,0,0.9-0.6,1.3-1
			c-1.1-0.9-2.3-1.8-3.4-2.6c-0.3-0.2-0.9-0.2-1.1-0.4c-0.7-0.7-1.2-1.5-1.8-2.3c0.2-0.2,0.4-0.5,0.7-0.7c0.8,0.1,1.6,0,2.3,0.4
			c2.2,1.2,3.9,1.9,4.8-1.6c0.3-1.3,2.4-2.2,3.8-3.3c0.6-0.4,1.2-0.8,1.8-1.2c0-0.3,0-0.5,0-0.8c-3.5-0.2-7.4,0.2-7.8-5
			c-0.2,0.2-0.5,0.4-0.7,0.6c-0.3,1-0.7,2.1-1,3.2c-0.8-0.5-1.4-0.9-2.3-1.4c-0.2,1.1-0.4,1.8-0.5,2.2c-7.7,0.5-11.2-5.7-16.3-9.5
			c1.8-0.2,3.5,0,5,0.8c2.4,1.2,4.7,1.8,7.1,0.1c0.4-0.3,1-0.3,1.5-0.4c0.2,0.3,0.3,0.6,0.5,0.9c-1.8,1.1-3.7,2.2-5.5,3.2
			c1.5,2.5,3.3,3,5.1,0.9c1.2-1.5,1.9-3.4,2.9-5.1c1.2-2.1,0.3-3.2-1.6-4.3c-2.3-1.5-4.3-3.4-6.4-5.2c-0.6-0.5-1.1-1.3-1.8-1.4
			c-2.4-0.6-6.1,2.1-7,4.5c-0.4,1-1.6,2.2-2.6,2.4c-2.3,0.4-4.8,0-7,0.6c-1.1,0.3-2.1,2.1-2.7,3.4c-0.3,0.6,0.6,1.6,0.9,2.5
			c1.1-0.5,2.2-1,3.2-1.6c0.8-0.5,1.6-1.8,2.1-1.7c0.8,0.2,1.7,1.2,2,2.1c0.9,3,2.5,5.3,5.8,6.7c-3.8,2.7-3.1,5.9-2.2,9.7
			C70,229.6,71.5,228.6,73,227.6z M108.1,273.4c0.2-0.2,0.9-0.7,1-1.3c0.6-2.3,1.2-4.7,1.7-7.1c0.8-4.3,1.2-8.6,2.1-12.8
			c1-4.6,2.5-9.1,3.6-13.7c0.2-0.9,0-1.9-0.1-2.8c-0.9,0.2-2.1,0.1-2.7,0.7c-4.1,3.8-8.2,7.6-12.2,11.6c-0.4,0.4-0.2,1.3-0.2,2
			c0,2.1,0.1,4.2,0.1,6.2c0.1,1.6-0.2,3.4,0.4,4.8C103.8,265.1,106,269.1,108.1,273.4z M94.2,309.7c4.1,0.3,6.9-1.9,7.4-4.7
			c0.1-0.8,0.8-1.4,1.2-2.1c0.5-1,1.1-1.9,1.3-3c0.3-1.2,0.1-2.6,0.2-3.9c0.1-0.7,1-1.7,0.7-2.1c-1.7-2.5-2-6.4-6.2-6.5
			c-0.9,1.3-1.8,2.6-2.7,3.9c0.2,0.2,0.4,0.5,0.5,0.7c1.3-0.7,2.7-1.5,4-2.2c1.6,3.3,1.5,3.4-1.8,4.6c-4.3,1.6-8.3,1.5-12.5-0.6
			c-3.6-1.8-5.6-1-8.2,2c-1.2,1.4-2.8,2.5-4.2,3.7c-2,1.7-4,3.4-5.8,5.2c-0.4,0.4-0.3,1.4-0.4,2.2c0.8,0.1,1.7,0.5,2.5,0.2
			c0.7-0.2,1.2-1.1,1.9-1.5c0.6-0.3,1.9-0.5,2-0.2c1.2,2,2.6,1.1,3.8,0.3c2.1-1.5,4-3.4,6.2-4.7c1.6-1,3.6-1.4,5.3-2.1
			c0.2,0.3,0.4,0.7,0.6,1c-0.9,1.4-1.8,2.7-2.6,4.1c0.2,0.2,0.3,0.5,0.5,0.7c3.7-2.3,7.4-4.5,11.4-7
			C100.1,302.8,98,306.3,94.2,309.7z M172.8,216.1c0.2-0.1-0.1,0-0.2,0.1c-1.8,7.2-3.6,14.4-5.3,21.6c-0.4,1.9,0.3,3,2.5,3.1
			c5,0.3,9.4,2.1,12.6,6.1c1.9,2.4,3.9,4.6,5.9,6.9c0.4,0.5,1.1,0.8,1.7,1.1c0.1-0.2,0.3-0.3,0.4-0.5
			C184.5,241.7,178.6,228.9,172.8,216.1z M92.6,257.4c1.1-3.4,2.1-6.6,3.4-10.5c-1.6,0.7-2.4,1.1-3.6,1.6c1.5-3.6,2.9-6.8,4.2-10
			c-0.3-0.2-0.6-0.3-0.9-0.5c-0.4,0.3-0.9,0.5-1.1,0.9c-2,4.4-4,8.8-6.1,13.2c-0.4,0.8-1,1.5-1.5,2.3c-0.3-0.9-0.8-1.9-0.8-2.8
			c0-2.5,0.3-4.9,0.5-7.7c-3.9,0.7-3.2,4.1-4.3,6.3c-0.5-0.1-0.9-0.1-1.3-0.2c-0.9-0.2-1.7-0.5-2.6-0.7c0,1-0.1,1.9,0.1,2.9
			c0.7,3.5,3.3,5,6.4,5.9c1.3,0.4,2.3,0.8,1.5,2.5c-0.7,1.5-1.1,3.1-1.9,5.2c-0.4-0.4-1.2-1.1-2.1-1.8c-0.7-0.5-1.5-1.2-2.1-1.2
			c-0.7,0.1-1.9,1.2-1.8,1.6c0.4,1.9,0.9,3.9,2.1,5.3c0.8,1,3.6,1.8,4.1,1.3c1.4-1.4,3.8-2.1,3.8-4.9c0-3.4,0.4-6.9,0.7-10.8
			C90.5,256.1,91.3,256.7,92.6,257.4z M88.1,21.9c-2.8,5.4,10,31.1,18.1,36.9c2.3-2.7,2.3-4,0.1-6.8c-1.5-1.9-3.7-3.3-3-6.5
			c0.2-1-1.7-3.1-3.1-3.7c-2.7-1.2-4.6-3.1-4.2-5.5c0.3-1.9,3-3.8,5.4-3.9c0.8,0,1.5-0.5,2.3-0.8c-0.3-0.8-0.5-1.9-1.1-2.3
			c-0.6-0.3-2-0.1-2.4,0.4c-1.4,2.1-2.7,1.5-4.1,0.1c-0.3-0.2-0.9-0.1-1.6-0.2c0.2,1.4,0.3,2.5,0.5,3.6c-0.3,0.1-0.6,0.3-0.8,0.4
			C89.9,31.2,88.6,26.8,88.1,21.9z M67.4,298.8c-0.3-0.3-0.7-0.7-1-1c-1.9,1.2-3.8,2.4-5.6,3.6c-0.7,0.5-1.6,1.4-2.2,1.3
			c-1.8-0.5-3.2-0.5-3.9,1.5c-0.5,1.4-1.1,2.8-1.6,4.2c0.3,0.1,0.5,0.2,0.8,0.3c0.7-1,1.4-2.1,2.5-3.8c1,3.6-1.3,4.9-2.5,6.8
			c-1.6,2.5-3.4,4.9-4.4,7.5c-1.4,3.5-2.2,7.2-3.3,10.8c-0.2,0.7-0.3,1.4-0.4,2.2c0.3,0.1,0.6,0.3,0.9,0.4c0.6-0.9,1.4-1.7,1.8-2.6
			c1.9-4.2,3.1-8.8,5.5-12.7c3.7-5.7,8.2-10.9,12.4-16.3C66.8,300.3,67,299.5,67.4,298.8z M228.4,318.3c1-1.7,2.2-3.7,3.3-5.7
			c0.3,0.1,0.6,0.3,0.8,0.4c-0.9,2-1.9,3.9-2.8,5.9c0.3,0.2,0.7,0.3,1,0.5c2.6-3.8,5.2-7.6,7.1-10.4c2.8-0.3,4.7-0.5,7.3-0.8
			c2,1.7,3.8,1,5.2-3.5c-1.7,0.3-3,0.6-4.4,0.9c-0.8,0.2-1.6,0.4-2.4,0.3c-4.7-0.3-9,1.6-13.6,2.2c-0.3,0-0.6,0.5-0.8,0.8
			c-1.6,2.8-3.3,5.5-4.8,8.4c-0.3,0.5,0,1.2,0,1.5C225.7,318.6,226.8,318.5,228.4,318.3z M113.1,52.6c-2.3-1.1-4-4.1-3.7-6.3
			c0.1-0.8-0.1-1.7-0.5-2.4c-0.1-0.3-1.4-0.4-1.5-0.1c-0.4,0.7-0.8,1.6-0.8,2.4c0,0.7,0.4,1.7,0.9,2.2c2.3,2.4,3,5.1,2,8.3
			c-0.2,0.5,0.3,1.5,0.9,2c0.4,0.3,1.4,0.4,1.9,0.1c2.9-1.5,4.7-5.9,4-9.3c-0.3-1.8-0.3-3.8-0.5-5.7c-0.4-3.6-0.8-7.2-1.2-10.8
			c-0.4,0-0.8-0.1-1.2-0.1c-0.3,0.9-0.7,1.7-0.7,2.6c0,1.7,0.4,3.4,0.4,5.1C113.2,44.5,113.1,48.5,113.1,52.6z M130.2,194.1
			c-0.8-4,0.1-6.7,4.6-7.5c-1-0.5-1.7-0.6-2.4-0.5c-2.8,0.3-3.4-0.4-2.7-3.2c0.2-0.9,0.4-1.9,0.5-2.8c-0.3-0.1-0.6-0.1-0.9-0.2
			c-0.5,1.6-1.1,3.2-1.3,4.8c-0.6,3.7-0.9,7.5-1.5,11.2c-0.4,2.3-1,4.6-1.5,6.8c0.3,0.1,0.6,0.1,1,0.2c0.5-1.5,1.1-3.1,1.6-4.6
			c0.3,0.1,0.6,0.2,1,0.3c-0.2,0.7-0.5,1.5-0.4,2.2c0.1,1,0.5,2,0.8,3c0.8-0.4,1.7-0.6,2.5-1.1c3.6-2.5,0.5-6.1,2.2-9.3
			C132,193.6,131.2,193.9,130.2,194.1z M141.5,118.6c-3,2.3-3,5.1-0.3,6.2c2.3,0.9,2.3,2.2,1.6,4c-0.3,0.8-0.7,1.5-0.7,2.3
			c0,0.8,0.4,1.8,1,2.2c0.4,0.3,1.4-0.1,2.1-0.3c2.3-0.8,2.3-2.7,2.6-4.8c0.4-3.1,1.6-6,2.3-9c0.1-0.6-0.7-1.4-1.1-2.1
			c-0.5,0.6-1.3,1.1-1.3,1.7c-0.3,3.5-2.6,4.1-5.4,3.9C141.9,121.3,141.7,120.1,141.5,118.6z M136.8,163.2c-4.2,3.1-3.6,7.9-4.9,12
			c-0.5,1.7-0.3,3.6-0.2,5.4c0,1.7,1,2.6,2.8,2.4c1.7-0.2,2-1,1.4-2.5c-0.1-0.4,0.3-0.9,0.4-1.4c0.2-0.9,0.3-1.8,0.4-2.7
			c0.1-3,0.3-6-0.5-8.9c-0.1-0.4,0.7-1,0.9-1.5c0.7-1.6,1.5-3.1,1.8-4.7c0.1-0.6-0.9-1.4-1.5-2.1c-0.7,0.6-1.7,1.2-2,2
			C135.3,161.4,136.3,162.3,136.8,163.2z M200.2,258.6c-0.3,0-0.6-0.1-0.9-0.1c-0.8,0.1-1.8-0.1-2.3,0.4c-0.3,0.3,0,1.4,0,2.1
			c0.8-0.1,1.6-0.1,2.4-0.2c1.4-0.3,2.8-0.6,4.5-1c0,1.2,0,2,0,2.7c0.4,0.1,0.7,0.2,1,0.2c1.5,0.2,3,0.3,4.4,0.4
			c0.1-1.4,0.2-2.8,0.3-4.2c0-0.1,0-0.2,0.1-0.3c1.4-3.7-1.3-5.6-2.9-7.9c-4.5,1.1-1,4.8-2.5,6.9c-0.9-0.6-1.7-1-2.5-1.6
			C201.3,257,200.7,257.8,200.2,258.6z M161.2,94.4c-6.2,1.2-8.3,5.5-8.4,11.1c-6.1,0.1-7,0.8-6.5,5.6c0.8-2.5,1.8-2.1,3.4-1
			c2.3,1.6,4.3,0.6,4.7-2.2c0.2-1.1,0.7-2.2,1-3.3c0.7-2.1,1.3-4.2,2-6.5C161.3,97.7,161.6,97.4,161.2,94.4z M127.5,74.3
			c-0.9,1.4-1.4,2.8-2.4,3.2c-0.6,0.2-1.8-1.1-3.1-1.9c1.9,5.9,3.2,11.8,8.5,16.1c0.2-0.8,0.6-1.7,0.4-2.4c-0.5-1.8-1.5-3.4-1.9-5.2
			C128.4,80.9,128,77.7,127.5,74.3z M192.5,216c-0.7,1.9-1.4,3.7-1.9,5.5c-0.2,0.6,0.2,1.4,0.4,2.1c0.7,1.9,1.8,3.8,2.2,5.8
			c0.3,1.5,0.5,2.5,2.2,2.5c1.5,0,3,0.3,3.3-1.9c0.4-3.2-0.6-5.7-2.7-6.2c-3-0.6-3.8-2.2-2.2-4.7C195.2,217,193.9,216.7,192.5,216z
			 M102.2,369.2c0.1,1,0.1,1.5,0.3,1.7c1.7,2.1,1.6,3.9-0.6,5.7c-1,0.8-1.7,2-2.3,3.1c-0.3,0.6,0,1.4,0.1,2.2
			c0.7-0.1,1.6,0.1,2.1-0.3c1.4-1,2.5-2.2,3.9-3.2c1.8-1.3,3.5-2.6,2.6-5.1C107.3,370.6,105.1,369.8,102.2,369.2z M109.3,74.7
			c-2.9,2.8-4.4,12.4-2.8,14.9c0.3,0.4,0.5,1.1,0.8,1.2c0.7,0.1,2,0.2,2.2-0.2c0.6-1.1,1.2-2.4,1.1-3.6c-0.1-2.7-0.5-5.4-0.8-8
			C109.7,77.8,109.5,76.5,109.3,74.7z M160.5,128.5c0.3-0.6,0.6-0.9,0.6-1.1c-1-5.3-0.8-10.8-3.1-15.8c-0.1-0.3-1.9-0.2-1.9-0.2
			c-0.3,1.4-0.6,2.9-0.5,4.4c0.2,1.7,0.9,3.3,1.1,4.9c0.3,2,0.3,4.1,0.4,6.9C159.8,124.5,159.6,127.4,160.5,128.5z M98.7,251.6
			c-0.3-0.1-0.6-0.2-1-0.4c-2.2,4.7-4.4,9.4-6.7,14.5C97.8,264.1,100.8,258.1,98.7,251.6z M100.3,263.8c-1.3,1.9-2,3.7-3.2,4.9
			c-2.3,2.2-5,4-7.4,6.1c-0.5,0.4-0.6,1.3-0.8,2c0.7,0,1.5,0.1,2.1-0.1c1.8-0.7,4.1-1.2,5.3-2.5c2.1-2.3,3.6-5.2,5.1-8
			C101.7,265.6,100.6,264.4,100.3,263.8z M87.1,276.2c0-0.4,0-0.8,0-1.2c-1.2-0.6-2.3-1.4-3.5-1.9c-2-0.8-4.1-1.3-6.1-2
			c-0.9-0.3-1.9-0.6-2.8-0.9c0.3,0.9,0.4,2.3,1,2.8c2.8,1.8,5.7,3.5,8.7,4.9C84.9,278.1,86.2,276.8,87.1,276.2z M105.5,65.1
			c-1.2,4.1-2.3,8-3.3,11.8c-0.3,1.2,0.1,2.5,0.2,4.3c0.9-0.6,1.1-0.7,1.3-0.8c3.1-3.8,0.5-9.3,3.7-13.1c0.1-0.1,0-0.4-0.1-0.6
			c-0.8-2-1.6-4-2.7-6.7c-0.8,1.7-1.4,2.8-2,4C103.7,64.4,104.4,64.7,105.5,65.1z M132.6,91.5c-0.2,1.5-0.5,2.2-0.3,2.8
			c1,3.2,2.2,6.3,3.2,9.5c0.3,1.1,0,2.3,0.1,3.5c0.1,1.1,0.2,2.2,0.3,3.4c0.4,0,0.8,0,1.2,0c0.2-2.5,0.6-5,0.6-7.4
			c0-1.1-1-2.2-1.5-3.4c-0.3-0.8-1.1-1.9-0.9-2.3C137.5,94.4,134.4,93.7,132.6,91.5z M84.8,281.5c0.1,0.5,0.3,1,0.4,1.4
			c2-0.3,4.3-0.1,5.9-1.1c3.6-2.3,7.4-3.3,11.6-3.1c0.5,0,1-0.7,1.5-1c-0.5-0.4-1.1-1.2-1.6-1.2c-3.9,0.6-7.9,1.1-11.8,2
			C88.7,279.1,86.8,280.5,84.8,281.5z M115.3,332.4c-0.4,0-0.7,0-1.1-0.1c-2.3,3.1-3.4,17.7-1.3,21.2
			C113.7,346.3,114.5,339.3,115.3,332.4z M74.7,184.6c-0.1-0.3-0.1-0.6-0.2-0.9c-3.9-0.9-7.6,0.5-11.2,1.7c-2.1,0.7-3.9,1.4-6,0.3
			c-0.6-0.3-1.5,0.2-2.3,0.4c0,0.5,0,0.9,0.1,1.4c2.1,0,4.3,0.3,6.4,0.1c3.1-0.4,6.1-1.2,9.1-1.8C71.9,185.4,73.3,185,74.7,184.6z
			 M88.3,311.4c-2.6,0.2-4.5,0.2-6.3,0.5c-2.2,0.3-3.3,2-3.3,4.1c0,0.6,1.4,1.9,1.7,1.8C83.3,316.5,86.5,315.5,88.3,311.4z
			 M59.4,313.1c-1.8,2.4-3.8,4.7-5.4,7.3c-0.5,0.7-0.1,2.1,0.2,3.1c0,0.2,1.1,0.4,1.5,0.2C57.6,322.9,60.7,316.1,59.4,313.1z
			 M104.5,161.5c1.2,3.9,2.5,7.8,3.8,11.7c0,0.1,0.8-0.1,1.6-0.1C108.2,168.9,111.3,163.2,104.5,161.5z M220.1,251.3
			c0.4-0.4,1.3-1.2,2.1-1.9c-1.5-1.3-2.9-2.7-4.5-3.9c-0.1-0.1-1.9,1.4-2,2.2C215.6,249.9,217,251,220.1,251.3z M105.6,27.7
			c1.1,4.2,2.1,8.4,3.3,12.8C111.2,38.8,109,29.3,105.6,27.7z M139.7,183c-0.4-0.1-0.8-0.2-1.2-0.2c-1.4,5.1-4.9,9.8-3.1,16
			C136.9,193.2,138.3,188.1,139.7,183z M99.1,199.2c-2.1-1.4-3.9-2.2-5.5,0.6c-0.4,0.7-1.2,1.1-1.6,1.8c-0.3,0.6-0.3,1.3-0.5,2
			c0.7,0,1.6,0.3,2.1-0.1C95.5,202.3,97.1,200.8,99.1,199.2z M52.3,190.3c0.1,0.2,0.1,0.4,0.2,0.7c1.8,1,3.5,2.1,5.3,2.9
			c0.7,0.3,1.6,0.4,2.3,0.3c0.4-0.1,0.9-0.7,1-1.2c0.1-0.3-0.3-1-0.7-1.2c-1.5-0.7-3-1.6-4.7-2C54.8,189.7,53.5,190.2,52.3,190.3z
			 M73.3,287.9c-0.4-0.6-0.5-0.9-0.7-1.1c-1.6-1.2-3.2-2.3-4.9-3.4c-0.4-0.2-1.3-0.3-1.5,0c-0.3,0.3-0.5,1.4-0.2,1.6
			c1.7,1.4,3.5,2.7,5.4,3.8C71.7,289,72.6,288.2,73.3,287.9z M106.8,21.8c-0.3,0.2-0.6,0.4-0.8,0.6c0,2.4,4.5,8.4,7.3,8.6
			C111.1,27.9,108.9,24.8,106.8,21.8z M146.7,97c-0.3-0.1-0.6-0.2-0.9-0.3c-0.3,1-0.7,1.9-1,2.9c-0.6,1.9-0.8,4.1-1.8,5.6
			c-1.6,2.4-0.1,3.4,1.1,4.9C145,105.5,145.8,101.2,146.7,97z M80.5,168.5c4.2,2.6,7.9,1.3,9.3-3.1
			C86.8,166.4,83.8,167.4,80.5,168.5z M160.1,145c2.8-2,4.2-8.6,2.8-11.5C161.9,137.6,161,141.3,160.1,145z M59.9,297.4
			c1.4,0.2,1.8,0.3,2,0.2c1.7-1,3-3.1,5.4-1.4c0.1,0.1,1-0.5,1-0.8c0-0.5-0.3-1.3-0.7-1.4c-1.2-0.4-2.7-1.1-3.6-0.7
			C62.6,294.1,61.6,295.7,59.9,297.4z M108.8,62.7c1,2.3,1.7,4,2.5,5.8c0.4,0,0.7-0.1,1.1-0.1c0.7-1.6,1.4-3.2,2.2-5.1
			C112.6,63,111.2,62.9,108.8,62.7z M52.4,195c-2.1-1.8-3.9-2-5.3-0.4c-0.5,0.6,0,3,0.7,3.4C51,199.7,50.2,195.6,52.4,195z
			 M79.8,181.9c0-0.5,0.1-0.9,0.1-1.4c-3.8,1-7-4.1-11.7-0.3C72.5,180.9,76.2,181.4,79.8,181.9z M210.8,293.2c0.3,0.1,0.7,0.2,1,0.3
			c0.3-1.4,0.7-2.7,1-4.1c-1.7-0.3-3.1-2.5-5.2-1C208.8,290.1,209.8,291.7,210.8,293.2z M106.5,179.1c1,1.2,1.8,2,2.5,2.9
			c0.6-0.7,1.9-1.6,1.8-2.1c-0.4-1.3-1.3-2.4-2.1-3.6C108.1,177,107.5,177.9,106.5,179.1z M187.8,211.2c0.5,2.6,0.9,4.9,1.3,7.2
			c0.2,0.1,0.4,0.2,0.7,0.3c0.7-1.8,1.5-3.6,2.2-5.4C190.6,212.7,189.4,212.1,187.8,211.2z M166.7,142.3c-0.3,0-0.6-0.1-1-0.1
			c-0.6,1.4-1.5,2.8-1.8,4.3c-0.2,0.8,0.7,1.8,1,2.8c0.7-0.7,1.8-1.3,1.9-2.1C167.1,145.7,166.8,144,166.7,142.3z M120.2,64.2
			c0.9,2.7,1.7,5,2.6,7.3c0.2,0.5,0.7,0.9,1.1,1.2c0.2,0.1,1-0.2,1-0.3c0-0.5-0.1-1.1-0.3-1.6c-0.4-1.3-1-2.6-1.2-3.9
			C123,64.5,121.7,64.1,120.2,64.2z M55.2,279.8c-1.8,0.7-3.3,1.1-4.7,1.7c-0.5,0.2-0.9,1-0.9,1.6c0,0.4,0.6,1,1.1,1.1
			C52.2,284.7,54.9,282.3,55.2,279.8z M61.3,202.3c1.5-1.8,2.6-3,3.5-4.3c0.2-0.3-0.3-1.6-0.7-1.7c-1-0.3-2.1-0.1-2.8-0.1
			C61.3,198.2,61.3,199.7,61.3,202.3z M86.2,187.4c0.1-0.5,0.3-1,0.4-1.4c-2.9-0.7-5.8-1.4-8.7-2.1c-0.3-0.1-0.7,0.7-1.2,1.2
			C80.1,185.9,83.2,186.6,86.2,187.4z M159.2,169.6c0.9-2,1.9-3.9,2.7-5.9c0.2-0.4,0-0.9-0.2-1.3c-0.1-0.2-0.8-0.2-1.1-0.1
			C158.8,163.3,157.9,167.7,159.2,169.6z M122.6,264.3c-2.2,2.6-2.7,8.6-0.6,10.1C122.1,271,122.3,267.8,122.6,264.3z M170.4,72
			c-0.5-0.1-0.9-0.2-1.4-0.3c-0.7,3-1.3,5.9-2,8.9c0.5,0.1,0.9,0.2,1.4,0.3C170.9,78.3,167.9,74.5,170.4,72z M170,174.9
			c-0.3-0.1-0.7-0.2-1-0.2c-2.5,3.2-2.6,3.7-0.9,7.4C168.8,179.4,169.4,177.2,170,174.9z M197.4,236.9c0.1-0.6,0.3-1.1,0.4-1.7
			c-1.3-0.5-2.7-1-4-1.5c-0.1,0.9-0.2,1.8-0.3,2.7C194.8,236.7,196.1,236.8,197.4,236.9z M234.1,318.2c0.3,0.4,0.5,0.8,0.8,1.2
			c1.3-2,5.6,0.6,5.9-4.3C238.1,316.3,236.1,317.2,234.1,318.2z M105.4,186.3c-0.5,0.2-1.1,0.5-1.6,0.7c0.6,1.4,1.2,2.8,1.9,4.1
			c0,0.1,1.2-0.5,1.9-0.7C106.8,189.1,106.1,187.7,105.4,186.3z M201.3,244.1c-0.1,0.3-0.2,0.6-0.4,0.9c0.8,1,1.6,2,2.6,2.9
			c0.5,0.5,1.4,0.5,2.2,0.8c0-0.8,0.2-2-0.2-2.3C204.2,245.4,202.7,244.8,201.3,244.1z M81.1,393.1c0.4,0.2,0.8,0.4,1.1,0.5
			c0.7-1.5,1.4-3,2.1-4.5C80.9,389.2,80.8,391.1,81.1,393.1z M96.4,174.2c0.5,2.2,2,2.9,3.8,3.2c0.3,0,0.6-0.8,1-1.2
			c-1.1-0.8-2.3-1.6-3.5-2.3C97.6,173.7,97.1,174,96.4,174.2z M220,272.5c0.2-0.3,0.4-0.5,0.6-0.8c-1-1-2-2.2-3.2-3.1
			c-0.4-0.3-1.2,0.1-1.8,0.2c0.2,0.7,0.1,1.7,0.6,2C217.3,271.6,218.7,272,220,272.5z M167.9,158.2c0.5-2.3,0.9-4.3,1.4-6.2
			C166.6,154.1,166.2,157.3,167.9,158.2z M171.8,50c-0.5-0.1-1.1-0.1-1.6-0.2c-0.1,2.2-0.3,4.5-0.4,6.7c0.3,0,0.6,0,0.9,0.1
			C171.1,54.4,171.5,52.2,171.8,50z M211.9,274.8c-0.4-0.2-0.8-0.4-1.2-0.6c-0.8,1.2-1.8,2.4-2.4,3.7c-0.2,0.4,0.8,1.2,1.5,2.3
			C210.7,277.9,211.3,276.3,211.9,274.8z M88.3,291.3c-0.1-3-1.4-3.6-3.1-3.2c-0.6,0.1-1,1-1.4,1.5
			C85.2,290.2,86.6,290.7,88.3,291.3z M167,39.6c-0.3-0.1-0.7-0.2-1-0.3c-0.7,2-1.3,4.1-2,6.1c0.5,0.1,1,0.3,1.5,0.4
			C166,43.7,166.5,41.7,167,39.6z M200.9,238.5c-0.3-0.2-0.7-0.3-1-0.5c-0.6,0.5-1.3,0.9-1.9,1.4c-1.6,1.5-0.9,2.7,0.9,2.4
			C199.7,241.6,200.2,239.6,200.9,238.5z M196,249.6c-2.8,2.8-2.7,3.9,0,5.8C196,253.5,196,251.9,196,249.6z M120,321.2
			c-0.3-0.3-0.6-0.5-0.9-0.8c-0.8,0.6-2.1,1.1-2.2,1.7c-0.1,0.9,0.8,1.9,1.2,2.8c0.3-0.1,0.6-0.1,0.9-0.2
			C119.4,323.5,119.7,322.3,120,321.2z M116,303.4c0.4-0.1,0.7-0.2,1.1-0.3c-0.5-1.4-0.9-2.8-1.5-4.2c0-0.1-0.8,0.1-1.3,0.2
			c0.3,1.3,0.6,2.6,1,3.8C115.4,303.1,115.7,303.2,116,303.4z M74,322.9c-0.2-0.4-0.3-0.8-0.5-1.1c-1.8,1-3.6,2.1-5.4,3.1
			c0.3,0.4,0.5,0.9,0.8,1.3C70.6,325.1,72.3,324,74,322.9z M112.3,274.2c-0.5,0.2-1,0.5-1.5,0.7c0.5,1.1,1.1,2.1,1.7,3.1
			c0.1,0.1,1-0.4,1.6-0.7C113.5,276.3,112.9,275.2,112.3,274.2z M222.2,280c0,0.2,0,0.5-0.1,0.7c1.7,0.4,3.4,0.8,5.1,1
			c0.3,0,1-0.7,0.9-0.9c-0.2-0.5-0.6-1.2-1-1.2C225.5,279.7,223.9,279.9,222.2,280z M114.1,329.3c1.3,0.7,2.4,1.3,4,2.1
			c-0.8-2-1.3-3.4-2.1-5.4C115.2,327.5,114.7,328.3,114.1,329.3z M162.9,96.5c0.2,0.1,0.5,0.2,0.7,0.3c0.5-1.8,3.4-2.9,1.4-6.3
			C164.2,93,163.6,94.7,162.9,96.5z M62.3,281.3c-3.6,0.1-4.3,0.9-3.9,3.7C59.8,283.7,61.1,282.5,62.3,281.3z M101.1,244.7
			c-0.2-0.3-0.4-0.7-0.7-1c-0.8,0.4-2.1,0.6-2.4,1.3c-0.3,0.6,0.3,1.7,0.5,2.6c0.3,0,0.6,0,0.9,0
			C99.9,246.6,100.5,245.6,101.1,244.7z M216.3,282.2c-0.2,0.4-0.4,0.9-0.6,1.3c1.4,0.6,2.8,1.2,4.1,1.9c0.2-0.5,0.4-1,0.6-1.4
			C219.1,283.3,217.7,282.8,216.3,282.2z M64.9,207.1c0.1-0.4,0.2-0.8,0.3-1.3c-1.3-0.6-2.4-2.8-4.1-1.3c-0.1,0.5-0.2,0.9-0.3,1.4
			C62.2,206.3,63.6,206.7,64.9,207.1z M109.7,187.7c0.8-0.9,1.8-1.6,1.6-1.9c-0.2-0.7-1-1.4-1.6-1.6c-0.5-0.1-1.1,0.7-1.7,1.1
			C108.5,186,108.9,186.6,109.7,187.7z"/>
		<path d="M132,363.8c-1.6,8.8-3.1,17.6-4.7,26.5c-0.4-0.1-0.8-0.1-1.2-0.2c0.2-9.1,2.4-17.8,4.9-26.4
			C131.4,363.7,131.7,363.8,132,363.8z"/>
		<path d="M129.1,353.5c-1.1,6.1-1.7,12-4.4,17.4c0.9-2.6-2.1-5.8,1.3-8.1c0.3-0.2,0.2-2.1-0.4-2.6c-1.7-1.8-0.5-3,0.5-4.2
			C126.7,355.1,127.7,354.5,129.1,353.5z"/>
		<path d="M201.8,292.3c-1.3,1.3-2.3,3.2-3.1,3c-2.5-0.3-3.2-2.8-3-4.8c0.1-1.6,1.4-3,2.2-4.5C199.1,287.9,200.3,289.9,201.8,292.3z
			"/>
		<path d="M47.6,256c-1-2.3-2.2-4.6-3-7c-0.2-0.5,0.5-1.9,1.1-2c0.6-0.2,1.9,0.3,2.2,0.9c1.6,2.5,1.6,5.2,0.7,7.9
			C48.2,255.9,47.9,255.9,47.6,256z"/>
		<path d="M235.4,341c-3-1.7-4.7-5.1-3.8-7.5c0.3-0.7,1.4-1.7,2-1.6c0.7,0.1,1.2,1.3,1.8,2c0.1,0.1,0,0.4,0,0.6
			C235.4,336.5,235.4,338.5,235.4,341z"/>
		<path d="M46.3,237.4c-3.4-0.7-5.1-3.4-3.7-5.6c0.4-0.7,1.6-1.5,2.3-1.4c0.7,0.1,1.6,1.3,1.7,2C46.8,234,46.5,235.6,46.3,237.4z"/>
		<path d="M126.2,395.7c0.6,1.9,1.1,3.7,1.7,5.6c-0.3,0.1-0.6,0.2-0.9,0.4c-0.4-0.5-0.9-1.1-1.1-1.3c-1,0.5-1.9,0.9-2.8,1.4
			c0-1.1-0.3-2.4,0.1-3.4c0.4-1,1.3-1.9,2-2.8C125.6,395.5,125.9,395.6,126.2,395.7z"/>
		<path d="M52.8,227.5c0.7-1,1.3-1.8,1.8-2.6c0.7,0.8,1.5,1.4,1.9,2.3c0.5,1.1,0.6,2.3,0.7,3.5c0.1,0.5-0.2,1-0.3,1.6
			c-0.5-0.2-1.3-0.1-1.6-0.5C54.4,230.5,53.7,229.2,52.8,227.5z"/>
		<path d="M150.5,235.7c-3.1,2-5.7,0.4-8.2-0.8c-0.3-0.2-0.4-1-0.6-1.5c0.6-0.1,1.3-0.5,1.8-0.4
			C145.7,233.8,147.9,234.7,150.5,235.7z"/>
		<path d="M201.2,305.8c-0.9,1.2-1.7,2-2.4,2.9c-0.6-1.2-1.5-2.3-1.6-3.5c0-0.8,1.1-1.7,1.7-2.6
			C199.6,303.5,200.3,304.5,201.2,305.8z"/>
		<path d="M123.5,385c0.6-3.4,1.1-6.8,1.7-10.6c1.8,2.4,1.4,6.3-0.7,10.7C124.1,385.1,123.8,385,123.5,385z"/>
		<path d="M124.7,222c-2.8-0.5-4.2-2.3-5.6-4.4C122,217.1,123.6,218.3,124.7,222z"/>
		<path d="M132.5,332.1c0.2-1.3,0.3-2.7,0.5-4c0.5,0.1,0.9,0.2,1.4,0.2c-0.4,1.3-0.8,2.7-1.2,4C132.9,332.2,132.7,332.2,132.5,332.1
			z"/>
		<path d="M122.2,291.9c-0.9-0.7-1.2-0.8-1.2-0.9c-0.1-1.3-0.1-2.7-0.1-4c0.4,0.1,1.3,0.1,1.3,0.2
			C122.2,288.6,122.2,290,122.2,291.9z"/>
		<path class="st0" d="M228.7,257.2c3.5-2.2,4.6,0,5.3,2.5c0.7,2.3,0.9,4.7,1.7,6.9c0.7,1.9,2.2,3.5,3,5.3c1.3,2.8,2.5,5.7,3.7,8.6
			c2,5,3.9,10,5.7,15c0.7,1.9,1.2,3.8,1.8,5.7c-1.9,0.6-3.8,1.2-5.7,1.7c-2.7,0.7-5.5,1.3-8.2,1.9c-3.2,0.7-4.3-0.1-5.5-3.2
			c-1.3-3.4-2.5-6.8-4.2-10c-0.6-1.2-2.6-1.6-4.4-2.7c-0.4,3.2-0.8,5.5-1.1,7.8c0.2,0.1,0.4,0.2,0.7,0.3c0.7-0.7,1.4-1.5,2.4-2.5
			c2.9,5.7-0.4,10.5-1.1,15.5c-0.3,0.1-0.7,0.2-1,0.3c-0.4-0.8-1.4-1.8-1.2-2.3c2-4-0.2-3.7-3.5-2.7c0.6-2.8,1.1-5.1,1.6-7.7
			c-1-0.2-1.8-0.1-2.3-0.4c-1-0.7-2.4-1.4-2.7-2.5c-0.2-0.8,0.7-2.4,1.5-2.9c1.9-1.2,1.5-4.6,4.6-4.6c0.6,0,1.2-0.5,1.7-0.3
			c2.4,0.7,4.2,0.7,3.9-2.7c0-0.4,1.3-1,2-1.2c1.2-0.3,2.4-0.4,3.8-0.7c-1.2-3.6-3.8-4.1-6.6-4.4c-1.5-0.1-3-0.6-4.5-0.9
			c-1.4-0.3-2.9-0.5-4.3-0.9c-0.8-0.2-1.6-0.6-2.1-1.2c-0.3-0.4-0.2-1.8,0-1.8c0.8-0.2,1.8-0.4,2.5-0.1c2.1,0.9,4,2.5,6.2,3.1
			c2.6,0.7,5.5,0.7,8.3,0.9c0.1-0.4,0.1-0.9,0.2-1.3c-0.9-0.3-1.9-0.4-2.6-0.8c-1.6-1-3.1-2-4.5-3.2c-1.8-1.5-3.7-3.1-5.3-4.9
			c-0.6-0.7-1.2-2.1-1-2.9c0.7-2.5,1.5-5.1,2.7-7.4c0.6-1.2,2.3-1.9,3.1-3.1c0.9-1.2,2.1-2.8,1.9-3.9c-0.7-3.5-2.8-6.4-6.6-7.1
			c-1.7-0.3-4.8-0.2-5.1,0.6c-0.8,1.9-0.9,4.6-0.2,6.5c0.8,2.3,0.8,3.8-1.7,6c-1.8-4.8-3.5-9.1-5.1-13.5c-3-7.8-5.8-15.6-9-23.2
			c-1.4-3.3-3.3-6.3-5.2-9.8c0.9-2.3-2.3-12.5-5.3-15.4c-1.7,6.2-3.4,12.3-5.1,18.5c-2.9-1.4-3.1-2.4-1.3-4.2
			c0.6-0.6,1.1-1.4,1.3-2.2c0.5-2.7,0-5.6,1.6-8.2c1-1.7-0.4-2.1-2.1-1.8c-3.1,0.5-4.4-0.6-4.9-4.1c2.7,0.7,5.2,1.4,7.8,2
			c2.8-4.8,1.4-12-2.9-14c0.2-1.1,0.3-2.3,0.5-3.4c-2.7-0.5-5.2-0.6-4.9-4.3c0.1-1.1-1.3-2.4-2.1-3.6c1.4,0.1,2.4,0.2,3.4,0.2
			c0-1,0.2-2.2-0.1-3.1c-1.9-5.8-3.9-11.6-6.1-17.3c-0.3-0.9-1.7-1.4-2.6-2.2c-1.5-5.6-2.9-11.4-4.5-17.2c-0.3-1.1-1.4-2-1.9-3
			c-0.3-0.6-0.4-1.5-0.1-1.9c0.2-0.4,1.2-0.4,1.8-0.3c1.6,0.3,3.1,0.9,4.6,1.3c0.5,4.2,0.9,4.4,4.9,3.3c1.2-0.3,2.3-0.8,3.4-1.1
			c0.6-0.1,1.6-0.3,1.9,0.1c2.3,2.6,5.9,4.2,6.6,8.1c0.4,1.8,1.3,3.7,2.3,5.2c3,4.2,2.9,9.1,3.8,13.8c0.1,0.6,0,1.4,0.4,1.7
			c4.1,2.8,4.8,7.6,6.6,11.6c1.5,3.2,2.1,6.9,3.1,10.3c0.2,0.6,0.3,1.2,0.5,1.7c3.5,9.4,7.4,18.7,10.2,28.3c0.8,2.6,1.7,4.7,3,7.1
			c3.6,7.2,6.4,14.8,9.3,22.3c1.8,4.6,3.3,9.4,4.8,14.2c0.2,0.7-0.8,1.8-1.2,2.6c-0.4,0.7-0.8,1.4-1.2,2.1
			C228.4,256.7,228.5,257,228.7,257.2z M227.8,291c1.8,1.9,3.1,3.4,4.5,4.9c0.7-0.7,2-1.8,1.9-2.2c-1-1.9-2.3-3.5-3.5-5.3
			C229.9,289.2,229.2,289.8,227.8,291z M207.9,205.5c0.1-0.3,0.2-0.6,0.4-1c-2.6-1-5.1-2.1-7.7-3.1c-0.1,0.3-0.2,0.6-0.3,0.9
			C202.5,204,204.4,206.7,207.9,205.5z M220.1,290.2c-0.4-0.1-0.8-0.2-1.3-0.3c-0.3,1.3-0.7,2.6-1,3.9c0.5,0.1,1,0.2,1.5,0.3
			C219.6,292.8,219.8,291.5,220.1,290.2z"/>
		<path class="st0" d="M121,197.3c-2.3-4.3-6.8-6.9-6.9-13c-0.2-7.1-1.3-14.2-3-21.1c-1-4.3-3.9-8.2-5.7-12.3
			c-4.4-9.7-4.2-19.3,1.4-28.6c2.8-4.6,2.5-9.6,2.1-14.7c-0.3-3.9,0-7.7,0.1-11.6c0-0.6,0.2-1.3,0.6-1.7c4-4.2,3.1-9.5,3-14.6
			c0-2.1-0.1-4.2,0.1-6.3c0.1-1.2,0.7-2.4,1.1-3.5c0.3,0,0.6,0,0.9-0.1c0.5,0.8,1.1,1.5,1.4,2.4c2.5,6.4,4.8,12.8,7.4,19.2
			c1.9,4.8,4.4,9.5,6.1,14.4c2.4,6.7,4.8,13.4,6.2,20.4c0.8,3.9-0.4,8.2-1,12.3c-0.7,4.9-1.4,9.8-2.4,14.6c-1.5,7.3-3.3,14.5-5,21.7
			c-1.7,7.4-3.5,14.8-5.3,22.2C121.7,197.1,121.4,197.2,121,197.3z M110.2,116.3c1.8,3,3.3,5.6,4.9,8.1c0.2,0.3,1,0.4,1.3,0.2
			c0.3-0.2,0.5-0.8,0.5-1.2c0-2.4,0.2-4.8-0.4-7c-0.4-1.8-1.8-3.5-2.7-5.2C112.8,112.8,111.6,114.4,110.2,116.3z M118.7,94.6
			c2.2-3,1.9-5.5,0.6-7.9c-0.5-1-1.8-1.6-2.7-2.3c-0.5,1.3-1.8,2.7-1.5,3.7C115.8,90.3,117.3,92.2,118.7,94.6z"/>
		<path class="st0" d="M150.7,160.8c0.9,0.7,1.6,1,1.7,1.5c1.9,5.1,3.9,10.1,5.5,15.3c0.4,1.3-0.7,3.1-1,4.6
			c-0.2,1.1-0.3,2.3-0.4,3.4c0.4,0.1,0.8,0.1,1.2,0.2c0.4-1.3,0.8-2.6,1.5-4.6c1,1.1,1.9,1.7,2.3,2.5c2.1,4.4,3.8,9,6.1,13.3
			c2.5,4.5,1.8,8.9,0.5,13.4c-1.9,6.4-2.5,12.8-1.7,19.4c0.2,1.9-0.2,4-0.6,6c-0.3,1.7-1.3,1.8-2.6,0.9c-5.1-3.6-10.1-7.4-15.4-10.9
			c-2.1-1.4-4.7-2.1-7.2-2.9c-1.7-0.5-2-1.2-1.3-2.9c0.6-1.5,0.8-3.3,1.2-4.9c1.6-6.7,3.6-13.3,4.8-20.1c1.6-9.6,2.6-19.3,3.9-28.9
			C149.4,164.5,150.1,162.9,150.7,160.8z M164,193.4c-0.3-0.1-0.5-0.1-0.8-0.2c-2,2.8-1.9,6-1.9,9.3c0,0.4,0.9,1.2,1.4,1.2
			c0.5,0,1.3-0.8,1.3-1.2C164,199.5,164,196.5,164,193.4z"/>
		<path class="st0" d="M60,343c1.2,0.8,2.4,1.2,2.5,1.8c0.8,3.6,2.3,2.8,4.6,1.2c1.4-1,3.5-0.9,4.5,1.9c-1.5-0.3-2.6-0.6-3.8-0.8
			c-0.1,0.3-0.2,0.5-0.3,0.8c3.9,1.6,7.8,3.1,12.1,4.8c0.2-5-4.5-5.1-6.3-8.1c3.6-0.5,6.3,1.2,8.3,3.1c4.9,4.6,9.3,9.7,13.9,14.7
			c2,2.2,3.8,4.5,6.3,7.5c-2.1-0.2-3.5-0.4-4.8-0.5c-0.1,0.2-0.3,0.5-0.4,0.7c1.1,0.7,2.3,1.3,3.3,2.1c0.7,0.5,1.1,1.4,1.6,2.1
			c-0.9,0.6-1.8,1.3-2.9,1.6c-0.5,0.1-1.3-0.4-1.8-0.9c-5.7-5.6-12.8-8.9-20.1-12c-0.4-0.2-0.8-0.6-1.4-1c0.7-0.7,1.3-1.2,1.9-1.8
			c-0.1-0.2-0.1-0.4-0.3-0.6c-2.8-2.4-5.7-4.8-8.5-7.1c-1.5-1.2-7.9-1.1-9.2,0.3c-0.6,0.7-0.4,2.1-0.7,3.4c-0.3-0.4-0.7-0.7-0.8-1
			c-1-3.1-2.5-5-6.3-4.2c-1,0.2-2.6-1.8-3.6-3c-0.7-0.9-0.9-2.3-1.4-3.5c-0.3,0-0.6,0-0.9,0c-0.1,1.1-0.1,2.2-0.4,3.2
			c-0.2,0.7-1,1.3-1.5,1.9c-0.4-0.6-1-1.2-1.1-1.9c-0.6-3.4,3.6-12.9,6.7-14.2c1-0.4,2.6,0.6,4.7,1.2c0.7-1.9,1.6-4.4,2.6-6.8
			c0.7-1.5,1.3-3.2,2.5-4.3c2.2-2,3.5-4.3,3.6-7.3c0.1-2,0.4-4,0.8-6c0.1-0.7,0.8-1.4,1.9-1.9c0.2,1,0.4,2,0.5,3
			c0.3,0.1,0.5,0.3,0.6,0.2c2.3-1.6,4.4-2.8,7.6-2c1.7,0.4,3.9-1.1,6.5-1.3c-1.2,1.1-2.4,2.1-3.5,3.2c-1.3,1.3-2.5,2.6-3.5,4
			c-1.1,1.5-1.8,3.4-3.1,4.5c-2.6,2-4.9,4-5.5,7.6c-0.2,1.2-1.2,2.2-2.2,3.8c1.5,0.2,2.8,0.3,4.6,0.5C64.7,335.9,62.4,339.4,60,343z
			 M56.7,349.4c0.2-1.6,0.7-2.5,0.4-3.1c-0.5-1.2-1.5-2.2-2.2-3.3c-0.4,0.7-1.3,1.5-1.1,1.9C54.4,346.2,55.3,347.3,56.7,349.4z
			 M60.7,332.3c-0.5-0.2-1-0.4-1.5-0.5c-0.6,1.9-1.2,3.7-1.7,5.6c0.4,0.1,0.8,0.3,1.2,0.4C59.3,335.9,60,334.1,60.7,332.3z"/>
		<path class="st0" d="M94,351.6c-3.6-5.4-7.2-9.5-12.9-10.8c-0.6-0.1-1.3,0.1-2.1,1c0.7,0.3,1.4,0.6,2.1,1c2.1,1.3,4.3,2.5,6.4,3.9
			c0.5,0.3,0.4,1.4,0.6,2.1c-0.7-0.1-1.5,0-2.1-0.3c-2.5-1.4-5.1-2.8-7.5-4.4c-0.9-0.6-1.3-1.9-1.9-2.8c0.1-0.3,0.2-0.6,0.4-0.9
			c-1.9,0.3-3.9,0.5-5.8,0.9c-1,0.2-2,0.7-2.9,0.6c-1.2,0-2.4-0.5-3.5-0.8c0.4-1.1,0.6-2.3,1.3-3.1c2.8-3.2,5.8-6.1,8.6-9.2
			c1-1.1,2-2.4,2.3-3.8c0.4-2.3,1.8-3.6,3.7-3.9c3.7-0.6,6.1-3,8.3-5.6c1.2-1.3,2.2-1.9,4.2-1.2c1.7,0.7,3.8,0.7,5.7,0.6
			c2.3-0.1,3,0.9,2.7,2.9c-0.5,3.5-1.2,6.9-1.9,10.4c-1.4,6.9-3,13.7-4.5,20.6C95,349.3,94.7,349.9,94,351.6z"/>
		<path class="st0" d="M73,227.6c-1.5,1-3,2-4.8,3.2c-1-3.8-1.6-7,2.2-9.7c-3.3-1.3-5-3.6-5.8-6.7c-0.2-0.8-1.2-1.8-2-2.1
			c-0.5-0.1-1.3,1.2-2.1,1.7c-1,0.6-2.2,1.1-3.2,1.6c-0.3-0.8-1.2-1.9-0.9-2.5c0.6-1.3,1.5-3,2.7-3.4c2.2-0.6,4.7-0.1,7-0.6
			c1-0.2,2.1-1.4,2.6-2.4c1-2.4,4.6-5,7-4.5c0.7,0.2,1.2,1,1.8,1.4c2.1,1.8,4.1,3.7,6.4,5.2c1.9,1.2,2.8,2.2,1.6,4.3
			c-1,1.7-1.6,3.7-2.9,5.1c-1.8,2.1-3.6,1.6-5.1-0.9c1.8-1.1,3.7-2.2,5.5-3.2c-0.2-0.3-0.3-0.6-0.5-0.9c-0.5,0.1-1.1,0.1-1.5,0.4
			c-2.4,1.7-4.7,1.1-7.1-0.1c-1.4-0.7-3.2-0.9-5-0.8c5.1,3.8,8.6,10,16.3,9.5c0.1-0.3,0.2-1.1,0.5-2.2c0.9,0.5,1.5,0.9,2.3,1.4
			c0.3-1.1,0.7-2.1,1-3.2c0.2-0.2,0.5-0.4,0.7-0.6c0.4,5.3,4.3,4.8,7.8,5c0,0.3,0,0.5,0,0.8c-0.6,0.4-1.2,0.8-1.8,1.2
			c-1.3,1.1-3.4,1.9-3.8,3.3c-0.9,3.5-2.6,2.8-4.8,1.6c-0.6-0.3-1.5-0.3-2.3-0.4c-0.2,0.2-0.4,0.5-0.7,0.7c0.6,0.8,1.1,1.6,1.8,2.3
			c0.2,0.3,0.8,0.2,1.1,0.4c1.2,0.8,2.3,1.7,3.4,2.6c-0.4,0.3-0.9,1-1.3,1c-1.8-0.2-4,0.3-4.8-2.2c0-0.2-0.3-0.3-0.1-0.1
			c-3.7,0.3-7,0.6-10.4,0.8c0,0.3,0,0.6,0.1,1c2.3,0.2,4.5,0.3,6.8,0.6c0.7,0.1,1.7,0.6,1.8,1.1c0.1,0.6-0.4,1.8-1,2
			c-1.5,0.6-3.2,1.1-4.8,1.1c-1.6,0-3.2-0.8-5.5-1.4c1.3,3.7,5.1,3.6,6.4,6.5c-2.8-1.2-6.3-1.9-8.2-4c-1-1.2,0.3-4.8,1-7.1
			c0.7-2.2,2.1-4.2,3.2-6.2C73.6,228.2,73.3,227.9,73,227.6z M83.5,225.8c-0.3,0-0.6-0.1-1-0.1c-1.9,1.1-3.8,2.3-6.3,3.8
			c0.6,0.5,1.3,1.6,2.2,1.9c1,0.3,2.8,0.2,3.2-0.4C82.6,229.4,82.9,227.5,83.5,225.8z M79.3,211c-1.3-1.2-2.1-2.2-3.2-2.9
			c-0.3-0.2-1.3,1.1-2,1.7c1.1,0.9,2.2,1.8,3.4,2.6C77.6,212.5,78.3,211.7,79.3,211z"/>
		<path class="st0" d="M80,150.7c1.2-3.8,0.7-8.1,3.9-11.5c2-2.1,2.5-5.5,3.7-8.5c0.7,0.2,1.6,0.4,2.8,0.7c0.1-1,0.2-1.8,0.3-2.6
			c3.1-0.6,2.6,9.1-0.6,13.6c-1.5,2.1-3.2,4-4.8,5.9c2.2,0.1,3.8-1.8,5.2-3.6c1.5-1.9,2.7-4,4.3-6.5c0.8,1.1,1.5,1.7,1.8,2.5
			c0.4,0.9,0.4,2,0.6,3c0.9-0.5,1.8-1,2.8-1.6c2.3,3.3-2,3.5-2.7,5.7c2.2,0.6,4.7,0.7,5.3,3.7c0.5,2.2,1.7,4.3,2.5,6.4
			c-0.2,0.2-0.5,0.3-0.7,0.5c-1.2-2-2.5-4.1-3.7-6.1c-0.4,0.1-0.7,0.2-1.1,0.3c0.4,2.1,0.8,4.1,1.3,6.2c0.5,1.9,1.2,3.8,1.4,5.7
			c0.1,0.6-0.9,1.4-1.5,2.1c-0.8-0.6-1.8-1.1-2.4-1.9c-0.3-0.4-0.3-1.2-0.1-1.8c1-5.3-2.5-8.3-6-11.2c-1.3-1-3-1-4,0.7
			c1.5,1,3.2,1.7,4.1,2.9c0.9,1.3,1.3,3.1,1.5,4.8c0.2,2.2-1.2,3.2-3.3,3.5c-3.3,0.4-6.5,0.9-9.7,1.5c-3.9,0.8-5.1,0.3-4.5-3.3
			C77.1,158.1,76.3,153.5,80,150.7c-0.3,2.9-1.9,6.2,2.3,8.3c0.8-1.1,1.4-2.1,2.4-3.5c-1.4-0.1-2.2-0.2-3.2-0.3
			c0.7-1.9,1.2-3.5,2-5.6C81.9,150.1,80.9,150.4,80,150.7z"/>
		<path class="st0" d="M91.6,122.8c0-3.4-0.4-6.9,0.2-10.2c0.5-2.9,2.2-5.6,3.1-8.5c1.4-4.4,2.6-8.9,3.8-13.3
			c0.1-0.2-0.2-0.5-1.4-1.8c-0.2,0.7-0.2,1.4-0.5,2c-2.5,6.7-5.2,13.3-7.3,20.1c-1.2,4-1.3,8.4-2.2,12.8c-0.2-1.2-0.4-2.3-0.5-3.5
			c-0.9-6.8,0.4-13.2,3-19.5c2.7-6.4,5.2-12.8,7.5-19.4c0.9-2.4,0.8-5.2,1.4-7.7c0.5-2.1,1.4-4.1,2.2-6.1c0.4,0.1,0.9,0.3,1.3,0.4
			c-0.3,1.2-0.5,2.3-0.8,3.5c-0.9,3.4-2.3,6.7-2.7,10.2c-0.3,2.4,0.8,5,1.3,7.5c0.4,1.8,1.1,3.6,1.1,5.4c0,1.8,0.2,3,1.9,3.9
			c1.7,1,3.6,2.3,2.3,5.4c-0.9-0.9-1.7-1.6-2.4-2.2c-0.2,0.1-0.4,0.2-0.6,0.4c0.9,1.9,1.7,3.9,2.8,5.7c3.1,5.1,2.6,6.7-1.5,11.2
			c-1.8,2-2.5,5.2-3.4,7.9c-0.6,1.8-0.5,3.7-0.9,5.6c-0.2,0.8-0.8,1.5-1.4,2.1c-0.2,0.2-1.2-0.1-1.2-0.3c-0.2-0.8-0.2-1.7-0.2-2.6
			c0.1-2.2,0.4-4.5,0.5-6.7c0.2-2.2,0.2-4.4,0.5-6.6c0.4-2.6,1.3-5,4.8-4.7c0.1-0.3,0.2-0.6,0.3-0.9c-1.6-1.3-3.1-2.6-4.7-4
			c-1.7,1.9,0.8,5.4-2.7,4.7c-0.5,3.3-0.9,6.3-1.4,9.6C92.8,123.1,92.2,122.9,91.6,122.8C91.5,122.7,91.6,122.8,91.6,122.8z"/>
		<path class="st0" d="M108.1,273.4c-2.2-4.3-4.4-8.3-6.2-12.4c-0.6-1.4-0.3-3.2-0.4-4.8c-0.1-2.1-0.1-4.2-0.1-6.2
			c0-0.7-0.2-1.7,0.2-2c4-3.9,8-7.8,12.2-11.6c0.6-0.6,1.8-0.5,2.7-0.7c0,0.9,0.3,1.9,0.1,2.8c-1.2,4.6-2.6,9.1-3.6,13.7
			c-0.9,4.2-1.4,8.5-2.1,12.8c-0.4,2.4-1,4.7-1.7,7.1C109,272.7,108.3,273.1,108.1,273.4z"/>
		<path class="st0" d="M94.2,309.7c3.8-3.4,5.9-6.9,5-11.7c-4,2.5-7.7,4.7-11.4,7c-0.2-0.2-0.3-0.5-0.5-0.7c0.9-1.4,1.8-2.7,2.6-4.1
			c-0.2-0.3-0.4-0.7-0.6-1c-1.8,0.7-3.7,1.1-5.3,2.1c-2.2,1.4-4,3.3-6.2,4.7c-1.2,0.9-2.6,1.7-3.8-0.3c-0.2-0.3-1.4-0.1-2,0.2
			c-0.7,0.3-1.2,1.3-1.9,1.5c-0.7,0.2-1.7-0.1-2.5-0.2c0.1-0.7,0-1.8,0.4-2.2c1.9-1.8,3.9-3.5,5.8-5.2c1.4-1.2,3-2.3,4.2-3.7
			c2.6-3,4.6-3.7,8.2-2c4.2,2.1,8.2,2.2,12.5,0.6c3.3-1.2,3.4-1.4,1.8-4.6c-1.3,0.7-2.6,1.4-4,2.2c-0.2-0.2-0.4-0.5-0.5-0.7
			c0.9-1.3,1.8-2.6,2.7-3.9c4.2,0.1,4.5,4,6.2,6.5c0.2,0.4-0.6,1.3-0.7,2.1c-0.2,1.3,0,2.6-0.2,3.9c-0.2,1-0.8,2-1.3,3
			c-0.4,0.7-1.1,1.4-1.2,2.1C101.1,307.8,98.3,310,94.2,309.7z"/>
		<path class="st0" d="M172.8,216.1c5.9,12.8,11.8,25.7,17.6,38.5c-0.1,0.2-0.3,0.3-0.4,0.5c-0.6-0.4-1.3-0.6-1.7-1.1
			c-2-2.3-4-4.5-5.9-6.9c-3.2-4.1-7.6-5.8-12.6-6.1c-2.2-0.2-3-1.2-2.5-3.1c1.7-7.2,3.5-14.4,5.3-21.6
			C172.6,216,172.9,216,172.8,216.1z"/>
		<path class="st0" d="M92.6,257.4c-1.3-0.8-2.2-1.3-3.3-2c-0.3,3.9-0.7,7.3-0.7,10.8c0,2.8-2.4,3.5-3.8,4.9
			c-0.5,0.5-3.3-0.3-4.1-1.3c-1.2-1.4-1.6-3.5-2.1-5.3c-0.1-0.4,1.1-1.5,1.8-1.6c0.7-0.1,1.5,0.7,2.1,1.2c0.9,0.7,1.7,1.4,2.1,1.8
			c0.8-2.2,1.2-3.8,1.9-5.2c0.8-1.7-0.2-2.1-1.5-2.5c-3.1-0.9-5.8-2.3-6.4-5.9c-0.2-0.9-0.1-1.9-0.1-2.9c0.9,0.2,1.7,0.5,2.6,0.7
			c0.4,0.1,0.8,0.1,1.3,0.2c1-2.3,0.3-5.6,4.3-6.3c-0.2,2.8-0.4,5.3-0.5,7.7c0,0.9,0.5,1.9,0.8,2.8c0.5-0.8,1.2-1.5,1.5-2.3
			c2.1-4.4,4-8.8,6.1-13.2c0.2-0.4,0.7-0.6,1.1-0.9c0.3,0.2,0.6,0.3,0.9,0.5c-1.3,3.2-2.7,6.3-4.2,10c1.2-0.5,2-0.9,3.6-1.6
			C94.7,250.8,93.7,254,92.6,257.4z"/>
		<path class="st0" d="M88.1,21.9c0.5,5,1.8,9.3,6.2,11.8c0.3-0.1,0.6-0.3,0.8-0.4c-0.2-1.1-0.3-2.2-0.5-3.6
			c0.7,0.1,1.3-0.1,1.6,0.2c1.5,1.4,2.7,2,4.1-0.1c0.3-0.5,1.8-0.7,2.4-0.4c0.6,0.3,0.7,1.5,1.1,2.3c-0.8,0.3-1.5,0.7-2.3,0.8
			c-2.4,0.2-5.1,2-5.4,3.9c-0.3,2.4,1.5,4.3,4.2,5.5c1.4,0.6,3.3,2.7,3.1,3.7c-0.7,3.2,1.5,4.6,3,6.5c2.2,2.7,2.2,4.1-0.1,6.8
			C98.1,53,85.2,27.3,88.1,21.9z"/>
		<path class="st0" d="M67.4,298.8c-0.3,0.7-0.6,1.6-1.1,2.2c-4.1,5.4-8.7,10.6-12.4,16.3c-2.5,3.8-3.7,8.4-5.5,12.7
			c-0.4,0.9-1.2,1.7-1.8,2.6c-0.3-0.1-0.6-0.3-0.9-0.4c0.1-0.7,0.2-1.5,0.4-2.2c1-3.6,1.9-7.3,3.3-10.8c1.1-2.7,2.9-5.1,4.4-7.5
			c1.2-1.8,3.5-3.2,2.5-6.8c-1.1,1.7-1.8,2.8-2.5,3.8c-0.3-0.1-0.5-0.2-0.8-0.3c0.5-1.4,1.1-2.8,1.6-4.2c0.7-2,2.1-2,3.9-1.5
			c0.6,0.2,1.5-0.8,2.2-1.3c1.9-1.2,3.8-2.4,5.6-3.6C66.7,298.1,67,298.4,67.4,298.8z"/>
		<path class="st0" d="M228.4,318.3c-1.6,0.2-2.6,0.3-4,0.5c0-0.4-0.2-1.1,0-1.5c1.6-2.8,3.2-5.6,4.8-8.4c0.2-0.3,0.5-0.8,0.8-0.8
			c4.5-0.6,8.9-2.5,13.6-2.2c0.8,0.1,1.6-0.2,2.4-0.3c1.4-0.3,2.7-0.6,4.4-0.9c-1.4,4.5-3.2,5.2-5.2,3.5c-2.6,0.3-4.6,0.5-7.3,0.8
			c-1.9,2.8-4.5,6.6-7.1,10.4c-0.3-0.2-0.7-0.3-1-0.5c0.9-2,1.9-3.9,2.8-5.9c-0.3-0.1-0.6-0.3-0.8-0.4
			C230.6,314.6,229.4,316.6,228.4,318.3z"/>
		<path class="st0" d="M113.1,52.6c0-4.1,0-8.1,0-12c0-1.7-0.4-3.4-0.4-5.1c0-0.9,0.5-1.7,0.7-2.6c0.4,0,0.8,0.1,1.2,0.1
			c0.4,3.6,0.8,7.2,1.2,10.8c0.2,1.9,0.1,3.8,0.5,5.7c0.6,3.4-1.1,7.7-4,9.3c-0.5,0.3-1.5,0.2-1.9-0.1c-0.5-0.4-1-1.4-0.9-2
			c1-3.2,0.3-5.9-2-8.3c-0.5-0.5-0.9-1.4-0.9-2.2c0-0.8,0.3-1.7,0.8-2.4c0.1-0.2,1.4-0.1,1.5,0.1c0.4,0.7,0.6,1.6,0.5,2.4
			C109.2,48.5,110.8,51.5,113.1,52.6z"/>
		<path class="st0" d="M130.2,194.1c1-0.3,1.8-0.5,3.4-0.9c-1.7,3.3,1.4,6.9-2.2,9.3c-0.7,0.5-1.6,0.8-2.5,1.1c-0.3-1-0.7-2-0.8-3
			c-0.1-0.7,0.3-1.4,0.4-2.2c-0.3-0.1-0.6-0.2-1-0.3c-0.5,1.5-1.1,3.1-1.6,4.6c-0.3-0.1-0.6-0.1-1-0.2c0.5-2.3,1.1-4.5,1.5-6.8
			c0.6-3.7,0.9-7.5,1.5-11.2c0.3-1.6,0.9-3.2,1.3-4.8c0.3,0.1,0.6,0.1,0.9,0.2c-0.2,0.9-0.3,1.9-0.5,2.8c-0.7,2.8-0.1,3.5,2.7,3.2
			c0.7-0.1,1.4,0.1,2.4,0.5C130.3,187.4,129.4,190.2,130.2,194.1z"/>
		<path class="st0" d="M141.5,118.6c0.3,1.6,0.5,2.7,0.7,4c2.9,0.1,5.1-0.4,5.4-3.9c0.1-0.6,0.9-1.1,1.3-1.7
			c0.4,0.7,1.2,1.5,1.1,2.1c-0.7,3-1.8,6-2.3,9c-0.3,2.1-0.3,4-2.6,4.8c-0.7,0.2-1.7,0.6-2.1,0.3c-0.6-0.5-1-1.4-1-2.2
			c0-0.7,0.4-1.5,0.7-2.3c0.7-1.8,0.6-3.1-1.6-4C138.4,123.7,138.5,120.8,141.5,118.6z"/>
		<path class="st0" d="M136.8,163.2c-0.5-0.9-1.5-1.8-1.3-2.3c0.3-0.8,1.3-1.3,2-2c0.5,0.7,1.6,1.6,1.5,2.1
			c-0.3,1.6-1.2,3.2-1.8,4.7c-0.2,0.5-1,1.1-0.9,1.5c0.8,3,0.6,5.9,0.5,8.9c0,0.9-0.2,1.8-0.4,2.7c-0.1,0.5-0.5,1.1-0.4,1.4
			c0.6,1.5,0.2,2.3-1.4,2.5c-1.8,0.2-2.7-0.7-2.8-2.4c-0.1-1.8-0.3-3.7,0.2-5.4C133.2,171.1,132.6,166.2,136.8,163.2z"/>
		<path class="st0" d="M200.2,258.6c0.5-0.9,1.1-1.7,1.7-2.6c0.9,0.5,1.6,1,2.5,1.6c1.5-2.1-2-5.8,2.5-6.9c1.6,2.3,4.3,4.2,2.9,7.9
			c0,0.1-0.1,0.2-0.1,0.3c-0.1,1.4-0.2,2.8-0.3,4.2c-1.5-0.1-3-0.3-4.4-0.4c-0.3,0-0.6-0.1-1-0.2c0-0.8,0-1.5,0-2.7
			c-1.7,0.4-3.1,0.8-4.5,1c-0.8,0.2-1.6,0.2-2.4,0.2c0-0.7-0.4-1.8,0-2.1c0.5-0.4,1.5-0.3,2.3-0.4
			C199.6,258.5,199.9,258.6,200.2,258.6z"/>
		<path class="st0" d="M152.7,128.2c-0.2,2-0.3,4.1-0.8,6c-0.5,2-1.7,3.8,0.2,5.7c1-1.6,1.9-3.1,2.7-4.5c0.4,0.2,0.7,0.3,1.1,0.5
			c-1.3,5.6-2.5,11.3-4,17.6c-2.3-2.3-2.5-3.8-1.2-5.7c1.3-2,1.8-4.1-0.5-6.1c-1.8-1.5-1.8-6.1-0.4-8.6c0.2-0.4,0.8-1,0.6-1.2
			C149.1,129.2,151,128.8,152.7,128.2L152.7,128.2z"/>
		<path class="st0" d="M161.2,94.4c0.4,3,0.1,3.4-3.8,3.7c-0.7,2.3-1.3,4.4-2,6.5c-0.3,1.1-0.9,2.2-1,3.3c-0.4,2.7-2.4,3.8-4.7,2.2
			c-1.6-1.1-2.6-1.4-3.4,1c-0.5-4.7,0.4-5.5,6.5-5.6C152.9,99.9,155,95.6,161.2,94.4z"/>
		<path class="st0" d="M127.5,74.3c0.5,3.4,0.9,6.6,1.6,9.7c0.4,1.8,1.4,3.4,1.9,5.2c0.2,0.7-0.3,1.6-0.4,2.4
			c-5.3-4.3-6.6-10.1-8.5-16.1c1.2,0.8,2.5,2.2,3.1,1.9C126.1,77.1,126.6,75.6,127.5,74.3z"/>
		<path class="st0" d="M192.5,216c1.3,0.7,2.7,1,1.4,3c-1.6,2.6-0.8,4.2,2.2,4.7c2.1,0.4,3.1,3,2.7,6.2c-0.3,2.3-1.8,1.9-3.3,1.9
			c-1.7,0-1.9-0.9-2.2-2.5c-0.4-2-1.5-3.9-2.2-5.8c-0.3-0.7-0.6-1.5-0.4-2.1C191.1,219.7,191.8,217.9,192.5,216z"/>
		<path class="st0" d="M102.2,369.2c2.9,0.6,5.1,1.4,6,4c0.9,2.5-0.9,3.8-2.6,5.1c-1.4,1-2.5,2.3-3.9,3.2c-0.5,0.4-1.4,0.2-2.1,0.3
			c-0.1-0.7-0.4-1.6-0.1-2.2c0.6-1.1,1.3-2.3,2.3-3.1c2.2-1.8,2.3-3.5,0.6-5.7C102.3,370.7,102.4,370.2,102.2,369.2z"/>
		<path class="st0" d="M109.3,74.7c0.3,1.8,0.5,3,0.6,4.3c0.3,2.7,0.7,5.4,0.8,8c0,1.2-0.5,2.5-1.1,3.6c-0.2,0.4-1.5,0.3-2.2,0.2
			c-0.3-0.1-0.6-0.8-0.8-1.2C104.9,87.1,106.4,77.5,109.3,74.7z"/>
		<path class="st0" d="M160.5,128.5c-0.9-1.1-0.8-3.9-3.3-0.9c-0.2-2.8-0.2-4.8-0.4-6.9c-0.2-1.7-1-3.3-1.1-4.9
			c-0.1-1.4,0.2-2.9,0.5-4.4c0-0.1,1.8-0.1,1.9,0.2c2.3,5,2,10.5,3.1,15.8C161.2,127.6,160.9,127.9,160.5,128.5z"/>
		<path class="st0" d="M98.7,251.6c2.1,6.5-0.9,12.5-7.7,14.2c2.4-5.1,4.6-9.8,6.7-14.5C98,251.3,98.3,251.4,98.7,251.6z"/>
		<path class="st0" d="M100.3,263.8c0.3,0.6,1.4,1.8,1.2,2.3c-1.5,2.8-3,5.7-5.1,8c-1.2,1.3-3.5,1.8-5.3,2.5
			c-0.6,0.2-1.4,0.1-2.1,0.1c0.3-0.7,0.3-1.6,0.8-2c2.4-2.1,5.1-3.9,7.4-6.1C98.3,267.5,99.1,265.8,100.3,263.8z"/>
		<path class="st0" d="M87.1,276.2c-0.9,0.6-2.2,2-2.7,1.7c-3-1.4-5.9-3.1-8.7-4.9c-0.7-0.4-0.7-1.8-1-2.8c0.9,0.3,1.9,0.6,2.8,0.9
			c2,0.7,4.1,1.2,6.1,2c1.2,0.5,2.3,1.2,3.5,1.9C87.1,275.4,87.1,275.8,87.1,276.2z"/>
		<path class="st0" d="M105.5,65.1c-1.1-0.4-1.8-0.7-2.9-1.1c0.6-1.2,1.1-2.3,2-4c1.1,2.7,1.9,4.7,2.7,6.7c0.1,0.2,0.2,0.5,0.1,0.6
			c-3.1,3.8-0.6,9.3-3.7,13.1c-0.1,0.1-0.3,0.2-1.3,0.8c-0.1-1.7-0.4-3.1-0.2-4.3C103.2,73.1,104.3,69.2,105.5,65.1z"/>
		<path class="st0" d="M132.6,91.5c1.8,2.2,4.9,2.9,2.6,6.1c-0.3,0.4,0.5,1.5,0.9,2.3c0.5,1.1,1.5,2.2,1.5,3.4
			c0.1,2.5-0.4,5-0.6,7.4c-0.4,0-0.8,0-1.2,0c-0.1-1.1-0.3-2.2-0.3-3.4c-0.1-1.2,0.2-2.4-0.1-3.5c-1-3.2-2.2-6.3-3.2-9.5
			C132.1,93.7,132.4,93,132.6,91.5z"/>
		<path class="st0" d="M84.8,281.5c2-1,3.9-2.4,6-2.9c3.9-1,7.8-1.5,11.8-2c0.5-0.1,1.1,0.8,1.6,1.2c-0.5,0.4-1,1-1.5,1
			c-4.2-0.2-8,0.8-11.6,3.1c-1.5,1-3.9,0.8-5.9,1.1C85.1,282.4,85,281.9,84.8,281.5z"/>
		<path class="st0" d="M115.3,332.4c-0.8,6.9-1.5,13.9-2.4,21.2c-2.1-3.5-1.1-18.1,1.3-21.2C114.6,332.4,114.9,332.4,115.3,332.4z"
			/>
		<path class="st0" d="M74.7,184.6c-1.4,0.4-2.8,0.8-4.2,1.1c-3,0.7-6,1.4-9.1,1.8c-2.1,0.3-4.3,0-6.4-0.1c0-0.5,0-0.9-0.1-1.4
			c0.8-0.2,1.8-0.7,2.3-0.4c2.1,1.1,4,0.4,6-0.3c3.6-1.2,7.3-2.7,11.2-1.7C74.6,184,74.7,184.3,74.7,184.6z"/>
		<path class="st0" d="M88.3,311.4c-1.9,4.1-5,5.1-7.9,6.3c-0.3,0.1-1.7-1.2-1.7-1.8c0-2.1,1.1-3.7,3.3-4.1
			C83.8,311.6,85.7,311.5,88.3,311.4z"/>
		<path class="st0" d="M59.4,313.1c1.4,2.9-1.7,9.8-3.7,10.6c-0.4,0.2-1.5-0.1-1.5-0.2c-0.2-1-0.6-2.4-0.2-3.1
			C55.6,317.9,57.5,315.5,59.4,313.1z"/>
		<path class="st0" d="M104.5,161.5c6.8,1.7,3.7,7.4,5.4,11.6c-0.8,0.1-1.6,0.2-1.6,0.1C107,169.3,105.7,165.4,104.5,161.5z"/>
		<path class="st0" d="M220.1,251.3c-3-0.2-4.5-1.4-4.4-3.7c0.1-0.8,1.9-2.2,2-2.2c1.6,1.2,3,2.6,4.5,3.9
			C221.4,250.1,220.5,250.9,220.1,251.3z"/>
		<path class="st0" d="M105.6,27.7c3.4,1.6,5.6,11.1,3.3,12.8C107.7,36.1,106.7,31.9,105.6,27.7z"/>
		<path class="st0" d="M139.7,183c-1.4,5.1-2.8,10.2-4.3,15.8c-1.8-6.2,1.8-10.9,3.1-16C138.9,182.9,139.3,182.9,139.7,183z"/>
		<path class="st0" d="M99.1,199.2c-2,1.6-3.6,3.1-5.3,4.3c-0.5,0.3-1.4,0.1-2.1,0.1c0.1-0.7,0.1-1.4,0.5-2c0.4-0.7,1.2-1.1,1.6-1.8
			C95.2,197,97,197.8,99.1,199.2z"/>
		<path class="st0" d="M52.3,190.3c1.2-0.2,2.5-0.6,3.5-0.4c1.6,0.4,3.1,1.2,4.7,2c0.4,0.2,0.8,0.8,0.7,1.2c-0.1,0.5-0.6,1.1-1,1.2
			c-0.7,0.1-1.6,0-2.3-0.3c-1.8-0.9-3.6-1.9-5.3-2.9C52.5,190.8,52.4,190.5,52.3,190.3z"/>
		<path class="st0" d="M73.3,287.9c-0.7,0.3-1.6,1.1-1.9,0.9c-1.9-1.1-3.7-2.4-5.4-3.8c-0.2-0.2-0.1-1.2,0.2-1.6
			c0.3-0.3,1.2-0.2,1.5,0c1.7,1.1,3.3,2.2,4.9,3.4C72.8,286.9,72.9,287.3,73.3,287.9z"/>
		<path class="st0" d="M106.8,21.8c2.2,3,4.3,6.1,6.5,9.1c-2.8-0.2-7.3-6.2-7.3-8.6C106.2,22.1,106.5,22,106.8,21.8z"/>
		<path class="st0" d="M146.7,97c-0.8,4.3-1.7,8.6-2.5,13.1c-1.2-1.5-2.8-2.5-1.1-4.9c1.1-1.6,1.2-3.7,1.8-5.6c0.3-1,0.7-1.9,1-2.9
			C146.1,96.8,146.4,96.9,146.7,97z"/>
		<path class="st0" d="M80.5,168.5c3.3-1.1,6.2-2.1,9.3-3.1C88.5,169.7,84.7,171,80.5,168.5z"/>
		<path class="st0" d="M160.1,145c0.9-3.7,1.8-7.4,2.8-11.5C164.3,136.4,162.9,143,160.1,145z"/>
		<path class="st0" d="M59.9,297.4c1.7-1.7,2.7-3.3,4.1-4.1c0.8-0.5,2.4,0.3,3.6,0.7c0.4,0.1,0.7,0.9,0.7,1.4c0,0.3-0.9,0.9-1,0.8
			c-2.4-1.7-3.7,0.4-5.4,1.4C61.7,297.8,61.4,297.6,59.9,297.4z"/>
		<path class="st0" d="M108.8,62.7c2.5,0.2,3.8,0.4,5.8,0.6c-0.8,1.9-1.5,3.5-2.2,5.1c-0.4,0-0.7,0.1-1.1,0.1
			C110.5,66.7,109.8,65,108.8,62.7z"/>
		<path class="st0" d="M52.4,195c-2.2,0.6-1.4,4.7-4.7,3c-0.7-0.4-1.2-2.8-0.7-3.4C48.5,193,50.3,193.2,52.4,195z"/>
		<path class="st0" d="M79.8,181.9c-3.7-0.5-7.3-1.1-11.6-1.7c4.7-3.8,7.9,1.3,11.7,0.3C79.9,181,79.9,181.5,79.8,181.9z"/>
		<path class="st0" d="M210.8,293.2c-1-1.5-2-3.1-3.2-4.8c2.1-1.5,3.5,0.6,5.2,1c-0.3,1.4-0.7,2.7-1,4.1
			C211.5,293.4,211.1,293.3,210.8,293.2z"/>
		<path class="st0" d="M106.5,179.1c1-1.2,1.6-2,2.2-2.8c0.7,1.2,1.7,2.3,2.1,3.6c0.1,0.5-1.2,1.4-1.8,2.1
			C108.3,181.1,107.6,180.3,106.5,179.1z"/>
		<path class="st0" d="M187.8,211.2c1.7,0.8,2.9,1.5,4.2,2.1c-0.7,1.8-1.5,3.6-2.2,5.4c-0.2-0.1-0.4-0.2-0.7-0.3
			C188.7,216.1,188.2,213.9,187.8,211.2z"/>
		<path class="st0" d="M166.7,142.3c0.1,1.6,0.4,3.3,0.2,4.9c-0.1,0.8-1.3,1.4-1.9,2.1c-0.4-0.9-1.2-1.9-1-2.8
			c0.3-1.5,1.2-2.9,1.8-4.3C166,142.3,166.4,142.3,166.7,142.3z"/>
		<path class="st0" d="M120.2,64.2c1.5-0.1,2.8,0.3,3.2,2.6c0.2,1.3,0.8,2.6,1.2,3.9c0.2,0.5,0.3,1.1,0.3,1.6c0,0.1-0.8,0.5-1,0.3
			c-0.5-0.3-1-0.7-1.1-1.2C121.9,69.2,121.2,66.9,120.2,64.2z"/>
		<path class="st0" d="M55.2,279.8c-0.3,2.4-3.1,4.9-4.6,4.5c-0.5-0.1-1.1-0.8-1.1-1.1c0-0.6,0.5-1.4,0.9-1.6
			C51.9,280.9,53.4,280.5,55.2,279.8z"/>
		<path class="st0" d="M61.3,202.3c0-2.7,0-4.2,0-6.1c0.7,0,1.8-0.2,2.8,0.1c0.4,0.1,0.9,1.4,0.7,1.7
			C63.9,199.4,62.7,200.6,61.3,202.3z"/>
		<path class="st0" d="M86.2,187.4c-3.1-0.7-6.1-1.5-9.5-2.3c0.5-0.5,0.9-1.2,1.2-1.2c2.9,0.6,5.8,1.3,8.7,2.1
			C86.5,186.4,86.4,186.9,86.2,187.4z"/>
		<path class="st0" d="M159.2,169.6c-1.3-1.9-0.4-6.3,1.5-7.2c0.3-0.1,0.9-0.1,1.1,0.1c0.2,0.4,0.3,0.9,0.2,1.3
			C161.1,165.7,160.1,167.7,159.2,169.6z"/>
		<path class="st0" d="M122.6,264.3c-0.2,3.5-0.4,6.7-0.6,10.1C119.9,272.9,120.4,266.9,122.6,264.3z"/>
		<path class="st0" d="M170.4,72c-2.6,2.5,0.5,6.3-2,8.9c-0.5-0.1-0.9-0.2-1.4-0.3c0.7-3,1.3-5.9,2-8.9
			C169.5,71.8,170,71.9,170.4,72z"/>
		<path class="st0" d="M170,174.9c-0.6,2.2-1.2,4.5-1.9,7.2c-1.8-3.7-1.7-4.2,0.9-7.4C169.3,174.8,169.6,174.9,170,174.9z"/>
		<path class="st0" d="M197.4,236.9c-1.3-0.1-2.6-0.3-3.9-0.4c0.1-0.9,0.2-1.8,0.3-2.7c1.3,0.5,2.7,1,4,1.5
			C197.6,235.8,197.5,236.4,197.4,236.9z"/>
		<path class="st0" d="M234.1,318.2c2-0.9,4-1.9,6.7-3.1c-0.4,4.9-4.6,2.3-5.9,4.3C234.7,319,234.4,318.6,234.1,318.2z"/>
		<path class="st0" d="M105.4,186.3c0.7,1.4,1.5,2.7,2.2,4.1c-0.7,0.3-1.9,0.8-1.9,0.7c-0.7-1.3-1.3-2.7-1.9-4.1
			C104.3,186.8,104.9,186.6,105.4,186.3z"/>
		<path class="st0" d="M201.3,244.1c1.4,0.7,2.9,1.3,4.2,2.2c0.4,0.3,0.1,1.5,0.2,2.3c-0.7-0.3-1.6-0.3-2.2-0.8
			c-1-0.8-1.7-1.9-2.6-2.9C201,244.6,201.1,244.4,201.3,244.1z"/>
		<path class="st0" d="M81.1,393.1c-0.2-2-0.2-3.9,3.2-4c-0.7,1.5-1.4,3-2.1,4.5C81.8,393.5,81.5,393.3,81.1,393.1z"/>
		<path class="st0" d="M96.4,174.2c0.6-0.2,1.1-0.5,1.3-0.3c1.2,0.7,2.3,1.5,3.5,2.3c-0.3,0.4-0.7,1.3-1,1.2
			C98.5,177.1,97,176.4,96.4,174.2z"/>
		<path class="st0" d="M220,272.5c-1.3-0.5-2.7-0.9-3.9-1.7c-0.4-0.3-0.4-1.3-0.6-2c0.6-0.1,1.5-0.4,1.8-0.2c1.2,0.9,2.1,2,3.2,3.1
			C220.4,272,220.2,272.3,220,272.5z"/>
		<path class="st0" d="M167.9,158.2c-1.7-0.9-1.3-4.1,1.4-6.2C168.8,153.9,168.4,155.9,167.9,158.2z"/>
		<path class="st0" d="M91.5,122.7c0.9,1.8,1.7,3.6,2.6,5.3c-0.4,0.2-0.8,0.5-1.1,0.7c-0.9-1.4-2-2.8-2.7-4.3
			C90.1,124.2,91.1,123.4,91.5,122.7C91.6,122.8,91.5,122.7,91.5,122.7z"/>
		<path class="st0" d="M171.8,50c-0.4,2.2-0.7,4.4-1.1,6.6c-0.3,0-0.6,0-0.9-0.1c0.1-2.2,0.3-4.5,0.4-6.7
			C170.7,49.9,171.3,50,171.8,50z"/>
		<path class="st0" d="M211.9,274.8c-0.6,1.5-1.2,3.1-2.1,5.3c-0.7-1.1-1.7-1.9-1.5-2.3c0.6-1.3,1.6-2.5,2.4-3.7
			C211.1,274.4,211.5,274.6,211.9,274.8z"/>
		<path class="st0" d="M88.3,291.3c-1.8-0.6-3.2-1.2-4.6-1.7c0.5-0.5,0.9-1.4,1.4-1.5C87,287.8,88.3,288.4,88.3,291.3z"/>
		<path class="st0" d="M167,39.6c-0.5,2.1-1,4.2-1.5,6.3c-0.5-0.1-1-0.3-1.5-0.4c0.7-2,1.3-4.1,2-6.1
			C166.3,39.4,166.6,39.5,167,39.6z"/>
		<path class="st0" d="M200.9,238.5c-0.6,1.1-1.1,3.1-1.9,3.3c-1.8,0.3-2.6-0.8-0.9-2.4c0.6-0.5,1.2-0.9,1.9-1.4
			C200.2,238.1,200.5,238.3,200.9,238.5z"/>
		<path class="st0" d="M196,249.6c0,2.3,0,3.9,0,5.8C193.3,253.4,193.3,252.4,196,249.6z"/>
		<path class="st0" d="M120,321.2c-0.3,1.2-0.6,2.4-0.9,3.5c-0.3,0.1-0.6,0.1-0.9,0.2c-0.4-0.9-1.3-1.9-1.2-2.8
			c0.1-0.6,1.4-1.2,2.2-1.7C119.4,320.6,119.7,320.9,120,321.2z"/>
		<path class="st0" d="M152.8,128.3c-1.3-3.9-1.1-4.5,2.6-5.2C154.4,125.1,153.5,126.6,152.8,128.3
			C152.7,128.2,152.8,128.3,152.8,128.3z"/>
		<path class="st0" d="M116,303.4c-0.2-0.2-0.6-0.3-0.7-0.5c-0.4-1.3-0.7-2.6-1-3.8c0.4-0.1,1.2-0.3,1.3-0.2c0.6,1.4,1,2.8,1.5,4.2
			C116.7,303.2,116.3,303.3,116,303.4z"/>
		<path class="st0" d="M74,322.9c-1.7,1.1-3.4,2.2-5.1,3.3c-0.3-0.4-0.5-0.9-0.8-1.3c1.8-1,3.6-2.1,5.4-3.1
			C73.6,322.1,73.8,322.5,74,322.9z"/>
		<path class="st0" d="M112.3,274.2c0.6,1.1,1.2,2.1,1.7,3.2c-0.5,0.2-1.5,0.8-1.6,0.7c-0.6-1-1.2-2.1-1.7-3.1
			C111.3,274.7,111.8,274.4,112.3,274.2z"/>
		<path class="st0" d="M222.2,280c1.7-0.1,3.3-0.3,5-0.3c0.3,0,0.8,0.7,1,1.2c0.1,0.2-0.6,0.9-0.9,0.9c-1.7-0.3-3.4-0.7-5.1-1
			C222.2,280.5,222.2,280.3,222.2,280z"/>
		<path class="st0" d="M114.1,329.3c0.6-1,1.1-1.8,1.9-3.3c0.8,2,1.3,3.4,2.1,5.4C116.4,330.5,115.4,330,114.1,329.3z"/>
		<path class="st0" d="M162.9,96.5c0.6-1.8,1.2-3.6,2.1-6c2,3.4-0.9,4.5-1.4,6.3C163.4,96.8,163.2,96.6,162.9,96.5z"/>
		<path class="st0" d="M62.3,281.3c-1.2,1.2-2.5,2.4-3.9,3.7C58,282.3,58.7,281.5,62.3,281.3z"/>
		<path class="st0" d="M101.1,244.7c-0.6,1-1.2,1.9-1.8,2.9c-0.3,0-0.6,0-0.9,0c-0.2-0.9-0.8-2-0.5-2.6c0.4-0.7,1.6-0.9,2.4-1.3
			C100.6,244,100.9,244.3,101.1,244.7z"/>
		<path class="st0" d="M216.3,282.2c1.4,0.6,2.8,1.2,4.2,1.7c-0.2,0.5-0.4,1-0.6,1.4c-1.4-0.6-2.8-1.2-4.1-1.9
			C215.9,283,216.1,282.6,216.3,282.2z"/>
		<path class="st0" d="M64.9,207.1c-1.4-0.4-2.8-0.8-4.1-1.1c0.1-0.5,0.2-0.9,0.3-1.4c1.7-1.5,2.8,0.7,4.1,1.3
			C65.1,206.3,65,206.7,64.9,207.1z"/>
		<path class="st0" d="M109.7,187.7c-0.8-1-1.2-1.7-1.7-2.4c0.6-0.4,1.3-1.3,1.7-1.1c0.7,0.2,1.4,0.9,1.6,1.6
			C111.4,186.1,110.5,186.8,109.7,187.7z"/>
		<path d="M227.8,291c1.4-1.2,2.2-1.9,2.9-2.5c1.2,1.7,2.5,3.4,3.5,5.3c0.2,0.3-1.2,1.4-1.9,2.2C230.9,294.4,229.5,292.9,227.8,291z
			"/>
		<path d="M207.9,205.5c-3.5,1.2-5.4-1.5-7.7-3.2c0.1-0.3,0.2-0.6,0.3-0.9c2.6,1,5.1,2.1,7.7,3.1C208.2,204.8,208,205.1,207.9,205.5
			z"/>
		<path d="M220.1,290.2c-0.2,1.3-0.5,2.6-0.7,3.9c-0.5-0.1-1-0.2-1.5-0.3c0.3-1.3,0.7-2.6,1-3.9C219.2,290,219.6,290.1,220.1,290.2z
			"/>
		<path d="M110.2,116.3c1.4-1.9,2.5-3.6,3.7-5.2c0.9,1.7,2.3,3.4,2.7,5.2c0.5,2.3,0.3,4.7,0.4,7c0,0.4-0.2,1.1-0.5,1.2
			c-0.3,0.2-1.1,0-1.3-0.2C113.6,121.9,112.1,119.3,110.2,116.3z"/>
		<path d="M118.7,94.6c-1.4-2.5-2.9-4.4-3.6-6.5c-0.3-1,0.9-2.5,1.5-3.7c0.9,0.8,2.1,1.4,2.7,2.3C120.6,89.1,120.9,91.7,118.7,94.6z
			"/>
		<path d="M164,193.4c0,3,0.1,6.1-0.1,9.1c0,0.5-0.9,1.2-1.3,1.2c-0.5,0-1.4-0.8-1.4-1.2c0-3.2,0-6.5,1.9-9.3
			C163.5,193.3,163.7,193.4,164,193.4z"/>
		<path d="M56.7,349.4c-1.4-2.1-2.4-3.2-2.9-4.5c-0.2-0.4,0.7-1.3,1.1-1.9c0.8,1.1,1.7,2.1,2.2,3.3
			C57.4,346.9,56.9,347.8,56.7,349.4z"/>
		<path d="M60.7,332.3c-0.7,1.8-1.4,3.6-2.1,5.4c-0.4-0.1-0.8-0.3-1.2-0.4c0.6-1.9,1.2-3.7,1.7-5.6
			C59.7,331.9,60.2,332.1,60.7,332.3z"/>
		<path d="M83.5,225.8c-0.6,1.7-0.9,3.6-1.9,5.1c-0.4,0.6-2.2,0.7-3.2,0.4c-0.9-0.3-1.7-1.4-2.2-1.9c2.5-1.5,4.4-2.6,6.3-3.8
			C82.8,225.7,83.2,225.7,83.5,225.8z"/>
		<path d="M79.3,211c-1,0.8-1.7,1.5-1.9,1.4c-1.2-0.8-2.3-1.7-3.4-2.6c0.7-0.6,1.7-1.8,2-1.7C77.1,208.7,78,209.8,79.3,211z"/>
		<path d="M80,150.7c0.9-0.3,1.8-0.6,3.4-1.1c-0.7,2.1-1.3,3.7-2,5.6c1.1,0.1,1.9,0.2,3.2,0.3c-0.9,1.4-1.6,2.4-2.4,3.5
			C78.1,156.9,79.7,153.6,80,150.7C80.1,150.6,80,150.7,80,150.7z"/>
	</g>
</g>
</svg>
