<?xml version="1.0" encoding="utf-8"?>
<!-- Generator: Adobe Illustrator 25.4.1, SVG Export Plug-In . SVG Version: 6.00 Build 0)  -->
<svg version="1.1" id="Layer_1" xmlns="http://www.w3.org/2000/svg" xmlns:xlink="http://www.w3.org/1999/xlink" x="0px" y="0px"
	 viewBox="0 0 271 415" style="enable-background:new 0 0 271 415;" xml:space="preserve">
<g id="rgOMMw_00000132060551001306039980000012420367709906229931_">
</g>
<g>
	<path d="M222.2,147.2c0-2.1,0-4.2,0-6.2c0-0.8,0.1-1.7,0.3-2.5c0.1-0.4,0.4-1,0.8-1.1c0.3-0.1,0.9,0.3,1.2,0.6c0.5,0.6,1,1.3,1.3,2
		c1.8,4,3.3,8.1,4,12.5c0.6,3.5,0,7-0.8,10.5c-0.5,2.3-1.3,4.5-1.9,6.7c-0.1,0.4-0.4,0.8-0.7,1.2c-0.4,0.5-0.8,0.4-1-0.2
		c-0.2-0.9-0.3-1.9-0.4-2.8c-0.2-2.3-1.3-4-3.4-4.9c-1.2-0.5-2.4-0.9-3.7-1.1c-4.7-1-9.5-1.3-14.3-1.5c-5-0.3-10.1-0.4-15.1-0.6
		c-3.4-0.1-6.8-0.2-10.2-0.3c-7.5-0.1-15.1-0.3-22.6-0.3c-5,0-10,0.3-15,0.4c-0.7,0-0.9,0.3-1,1c-0.7,4.3-0.9,8.6-0.9,12.9
		c0,4.8,0,9.7,0.1,14.5c0.1,9.6,0.3,19.1,0.4,28.7c0.1,6.6,0.3,13.2,0.4,19.8c0.2,9.2,0.5,18.3,0.7,27.5c0.1,5.6,0.3,11.2,0.3,16.8
		c0.2,13,0.3,26.1,0.4,39.1c0,3.4,0,6.9-0.5,10.3c-1.2,8.3-2.5,16.6-4,24.9c-1.5,8.1-3.3,16.1-5.7,24c-0.3,1-0.8,1.9-1.4,2.8
		c-0.6,0.8-1.3,0.7-1.5-0.3c-0.4-1.6-0.7-3.2-0.7-4.8c-0.1-6.3-0.1-12.7,0-19c0.1-6.3,0.3-12.5,0.4-18.8c0.1-5.5,0.1-11.1-0.1-16.6
		c-0.1-5.7-0.5-11.4-0.8-17.1c-0.3-8.5-0.6-17-0.9-25.5c-0.3-8.4-0.5-16.9-0.7-25.3c-0.2-8.7-0.5-17.3-0.8-26
		c-0.2-7.6-0.6-15.1-0.8-22.7c-0.3-7.9-0.6-15.9-0.8-23.8c-0.3-7.2-0.5-14.3-0.8-21.5c0-0.6-0.2-0.8-0.8-0.8c-2.6,0-5.2-0.1-7.7-0.1
		c-6.9-0.1-13.9-0.2-20.8-0.4c-8.7-0.2-17.1-2.2-25-5.7c-0.7-0.3-1.4-0.7-2.1-1.2c-0.2-0.2-0.5-0.6-0.5-0.8c0.1-0.2,0.5-0.5,0.8-0.5
		c1.1-0.1,2.2-0.2,3.3-0.2c4.5,0,9,0,13.6-0.1c5.1-0.1,10.1-0.2,15.2-0.3c7.3-0.2,14.7-0.4,22-0.6c3.5-0.1,6.9-0.2,10.4-0.3
		c7.2-0.2,14.5-0.4,21.7-0.6c5.1-0.1,10.2-0.3,15.3-0.4c6.6-0.2,13.1-0.4,19.7-0.6c5.2-0.1,10.4-0.3,15.6-0.4
		c6.3-0.2,12.6-0.4,18.9-0.6C221.7,147.3,221.9,147.2,222.2,147.2z"/>
	<path d="M122.6,134.7c0-2,0-4,0-6c-0.1-4.3-0.3-8.5-0.4-12.8c-0.2-6.6-0.5-13.2-0.8-19.7c-0.2-5.2-0.2-10.4-0.5-15.6
		c-0.3-5.3-0.8-10.6-1.2-15.8c-0.1-0.9-0.4-1.8-0.7-2.6c-0.9-2.3-2.3-3.3-4.8-3.3c-2.4,0-4.7,0.2-7.1,0.2c-1.5,0-2.9-0.1-4.4-0.2
		c-0.4,0-0.7-0.1-1.1-0.3c-1-0.4-1.3-1.2-0.6-2c0.8-1,1.8-1.9,2.9-2.6c6.7-4.2,13.6-7.7,21.3-9.6c5-1.2,10.1-1.2,15.2-0.1
		c5,1.1,10,2.4,14.5,4.8c0.9,0.5,1.7,1,2.4,1.7c0.9,0.8,0.7,1.7-0.4,2c-1,0.3-2.1,0.4-3.2,0.6c-0.9,0.1-1.8,0.1-2.7,0.2
		c-1.8,0.1-3.1,1-3.9,2.6c-1.3,2.7-2.4,5.5-3.8,8.1c-2.2,4.1-2.4,8.5-2.5,12.9c-0.2,14.8-0.2,29.5-0.3,44.3c0,3.8,0.1,7.6,0,11.3
		c0,0.8,0.3,1,1,1c4.4,0.1,8.8,0.1,13.1,0.3c7.9,0.3,15.7,0.8,23.4,2.9c4.3,1.2,8.4,2.9,12.7,4.8c-0.3,0.1-0.5,0.1-0.7,0.1
		c-5.9,0.1-11.7,0.3-17.6,0.4c-6.7,0.2-13.5,0.4-20.2,0.5c-5,0.1-10,0.2-14.9,0.4c-6.8,0.2-13.6,0.4-20.4,0.5
		c-4.2,0.1-8.4,0.2-12.5,0.3c-6.3,0.2-12.5,0.4-18.8,0.6c-4.2,0.1-8.3,0.2-12.5,0.3c-5.5,0.1-11,0.3-16.6,0.5
		c-4.8,0.1-9.6,0.2-14.4,0.4c-3.2,0.1-6.5,0.2-9.7,0.3c-0.6,0-0.7,0.4-0.7,0.8c0,2.3,0.1,4.6,0.1,7c0,0.9-0.2,1.8-0.5,2.7
		c-0.2,0.8-0.7,0.8-1.3,0.3c-0.3-0.3-0.6-0.7-0.8-1.1c-2.7-4.8-4.5-10-5.1-15.5c-0.4-3.7,0.3-7.4,1.1-11.1c0.3-1.4,0.8-2.8,1.3-4.2
		c0.1-0.4,0.5-0.8,0.8-1.4c0.2,0.4,0.4,0.6,0.5,0.9c1.3,3.7,3.6,6.3,7.6,7.1c3.5,0.7,7.1,1.3,10.7,1.5c10.3,0.6,20.5,1,30.8,1.3
		c7.5,0.3,15.1,0.3,22.6,0.4c5.8,0.1,11.6,0.1,17.4,0.2C118.9,134.7,120.8,134.7,122.6,134.7z"/>
</g>
</svg>
