<?xml version="1.0" encoding="utf-8"?>
<!-- Generator: Adobe Illustrator 25.4.1, SVG Export Plug-In . SVG Version: 6.00 Build 0)  -->
<svg version="1.1" id="Layer_1" xmlns="http://www.w3.org/2000/svg" xmlns:xlink="http://www.w3.org/1999/xlink" x="0px" y="0px"
	 viewBox="0 0 1920 1080" style="enable-background:new 0 0 1920 1080;" xml:space="preserve">
<g>
	<path d="M1037.9,365.9c0-3.8,0-7.7,0-11.4c0-1.5,0.2-3.1,0.5-4.6c0.2-0.7,0.7-1.8,1.5-2c0.5-0.2,1.6,0.5,2.2,1.1
		c0.9,1.1,1.8,2.4,2.4,3.7c3.3,7.3,6,14.8,7.3,22.9c1.1,6.4,0,12.8-1.5,19.2c-0.9,4.2-2.4,8.2-3.5,12.3c-0.2,0.7-0.7,1.5-1.3,2.2
		c-0.7,0.9-1.5,0.7-1.8-0.4c-0.4-1.6-0.5-3.5-0.7-5.1c-0.4-4.2-2.4-7.3-6.2-9c-2.2-0.9-4.4-1.6-6.8-2c-8.6-1.8-17.4-2.4-26.2-2.7
		c-9.2-0.5-18.5-0.7-27.6-1.1c-6.2-0.2-12.5-0.4-18.7-0.5c-13.7-0.2-27.6-0.5-41.4-0.5c-9.2,0-18.3,0.5-27.5,0.7
		c-1.3,0-1.6,0.5-1.8,1.8c-1.3,7.9-1.6,15.7-1.6,23.6c0,8.8,0,17.8,0.2,26.6c0.2,17.6,0.5,35,0.7,52.6c0.2,12.1,0.5,24.2,0.7,36.3
		c0.4,16.8,0.9,33.5,1.3,50.4c0.2,10.3,0.5,20.5,0.5,30.8c0.4,23.8,0.5,47.8,0.7,71.6c0,6.2,0,12.6-0.9,18.9
		c-2.2,15.2-4.6,30.4-7.3,45.6c-2.7,14.8-6,29.5-10.4,43.9c-0.5,1.8-1.5,3.5-2.6,5.1c-1.1,1.5-2.4,1.3-2.7-0.5
		c-0.7-2.9-1.3-5.9-1.3-8.8c-0.2-11.5-0.2-23.3,0-34.8s0.5-22.9,0.7-34.4c0.2-10.1,0.2-20.3-0.2-30.4c-0.2-10.4-0.9-20.9-1.5-31.3
		c-0.5-15.6-1.1-31.1-1.6-46.7c-0.5-15.4-0.9-30.9-1.3-46.3c-0.4-15.9-0.9-31.7-1.5-47.6c-0.4-13.9-1.1-27.6-1.5-41.6
		c-0.5-14.5-1.1-29.1-1.5-43.6c-0.5-13.2-0.9-26.2-1.5-39.4c0-1.1-0.4-1.5-1.5-1.5c-4.8,0-9.5-0.2-14.1-0.2
		c-12.6-0.2-25.5-0.4-38.1-0.7c-15.9-0.4-31.3-4-45.8-10.4c-1.3-0.5-2.6-1.3-3.8-2.2c-0.4-0.4-0.9-1.1-0.9-1.5
		c0.2-0.4,0.9-0.9,1.5-0.9c2-0.2,4-0.4,6-0.4c8.2,0,16.5,0,24.9-0.2c9.3-0.2,18.5-0.4,27.8-0.5c13.4-0.4,26.9-0.7,40.3-1.1
		c6.4-0.2,12.6-0.4,19-0.5c13.2-0.4,26.6-0.7,39.7-1.1c9.3-0.2,18.7-0.5,28-0.7c12.1-0.4,24-0.7,36.1-1.1c9.5-0.2,19-0.5,28.6-0.7
		c11.5-0.4,23.1-0.7,34.6-1.1C1037,366.1,1037.4,365.9,1037.9,365.9z"/>
	<path d="M855.6,343c0-3.7,0-7.3,0-11c-0.2-7.9-0.5-15.6-0.7-23.4c-0.4-12.1-0.9-24.2-1.5-36.1c-0.4-9.5-0.4-19-0.9-28.6
		c-0.5-9.7-1.5-19.4-2.2-28.9c-0.2-1.6-0.7-3.3-1.3-4.8c-1.6-4.2-4.2-6-8.8-6c-4.4,0-8.6,0.4-13,0.4c-2.7,0-5.3-0.2-8.1-0.4
		c-0.7,0-1.3-0.2-2-0.5c-1.8-0.7-2.4-2.2-1.1-3.7c1.5-1.8,3.3-3.5,5.3-4.8c12.3-7.7,24.9-14.1,39-17.6c9.2-2.2,18.5-2.2,27.8-0.2
		c9.2,2,18.3,4.4,26.6,8.8c1.6,0.9,3.1,1.8,4.4,3.1c1.6,1.5,1.3,3.1-0.7,3.7c-1.8,0.5-3.8,0.7-5.9,1.1c-1.6,0.2-3.3,0.2-4.9,0.4
		c-3.3,0.2-5.7,1.8-7.1,4.8c-2.4,4.9-4.4,10.1-7,14.8c-4,7.5-4.4,15.6-4.6,23.6c-0.4,27.1-0.4,54-0.5,81.1c0,7,0.2,13.9,0,20.7
		c0,1.5,0.5,1.8,1.8,1.8c8.1,0.2,16.1,0.2,24,0.5c14.5,0.5,28.7,1.5,42.8,5.3c7.9,2.2,15.4,5.3,23.3,8.8c-0.5,0.2-0.9,0.2-1.3,0.2
		c-10.8,0.2-21.4,0.5-32.2,0.7c-12.3,0.4-24.7,0.7-37,0.9c-9.2,0.2-18.3,0.4-27.3,0.7c-12.5,0.4-24.9,0.7-37.4,0.9
		c-7.7,0.2-15.4,0.4-22.9,0.5c-11.5,0.4-22.9,0.7-34.4,1.1c-7.7,0.2-15.2,0.4-22.9,0.5c-10.1,0.2-20.1,0.5-30.4,0.9
		c-8.8,0.2-17.6,0.4-26.4,0.7c-5.9,0.2-11.9,0.4-17.8,0.5c-1.1,0-1.3,0.7-1.3,1.5c0,4.2,0.2,8.4,0.2,12.8c0,1.6-0.4,3.3-0.9,4.9
		c-0.4,1.5-1.3,1.5-2.4,0.5c-0.5-0.5-1.1-1.3-1.5-2c-4.9-8.8-8.2-18.3-9.3-28.4c-0.7-6.8,0.5-13.5,2-20.3c0.5-2.6,1.5-5.1,2.4-7.7
		c0.2-0.7,0.9-1.5,1.5-2.6c0.4,0.7,0.7,1.1,0.9,1.6c2.4,6.8,6.6,11.5,13.9,13c6.4,1.3,13,2.4,19.6,2.7c18.9,1.1,37.5,1.8,56.4,2.4
		c13.7,0.5,27.6,0.5,41.4,0.7c10.6,0.2,21.2,0.2,31.9,0.4C848.8,343,852.3,343,855.6,343z"/>
</g>
<g>
	<path d="M930.7,585.7v-38.2l-5-0.7v-2.6h30.1l0.8,8.8h-2.9l-1.9-5.8l-16.2-0.3v17.5l11-0.2l0.8-5h3v13.3h-3l-0.8-5.1l-11-0.2v18.5
		l18.3-0.5l3.3-7.7l2.9,0.9l-2,10.3h-32.5v-2.6L930.7,585.7z"/>
	<path d="M962.8,588.8v-2.5l4.8-0.4v-26.5l-4.6-1v-2.7l7.6-1h0.1l1.1,1v1l-0.1,5.3h0.1c0.2-0.2,0.5-0.7,1.1-1.4
		c0.6-0.7,1.3-1.5,2.2-2.4c1-0.9,2.1-1.6,3.5-2.2c1.4-0.6,2.9-0.9,4.7-0.9c0.6,0,1,0,1.3,0.1c0.3,0,0.6,0.1,0.8,0.2v5
		c-0.1-0.1-0.5-0.2-1-0.3c-0.6-0.1-1.2-0.2-2.1-0.2c-1.9,0-3.4,0.2-4.7,0.7c-1.2,0.5-2.3,1.1-3.1,1.7c-0.8,0.6-1.6,1.2-2.2,1.6v22
		l8,0.5v2.5H962.8z"/>
	<path d="M1001.6,589.5c-3.2,0-5.8-0.7-8-2.2c-2.2-1.5-3.8-3.5-4.9-6.2c-1.1-2.6-1.6-5.7-1.6-9.1c0-2.6,0.4-4.9,1.2-7.1
		c0.8-2.1,1.8-4,3.2-5.5s3-2.7,4.9-3.6c1.9-0.8,3.9-1.3,6.1-1.3c3.5,0,6.3,1,8.3,3c2,2,3.1,5,3.2,8.8c0,1.1,0,2.1-0.1,3
		c0,0.9-0.1,1.6-0.3,2.3h-21.4c0,2,0.2,3.9,0.7,5.6c0.5,1.7,1.1,3.3,2.1,4.5c0.9,1.3,2,2.3,3.4,3s2.9,1.1,4.7,1.1
		c1.7,0,3.5-0.3,5.2-0.9c1.8-0.6,3.1-1.3,4-2.1l1,2.2c-0.8,0.8-1.8,1.5-3,2.1c-1.3,0.6-2.6,1.2-4.2,1.5
		C1004.7,589.3,1003.1,589.5,1001.6,589.5z M992.4,568.9h16.3c0.1-0.3,0.1-0.8,0.1-1.3c0-0.5,0-1,0-1.3c0-2.5-0.6-4.5-1.7-6.2
		c-1.2-1.7-3.1-2.5-5.8-2.5c-1.2,0-2.3,0.2-3.3,0.6c-1,0.4-1.9,1-2.7,1.9c-0.8,0.9-1.4,2-1.9,3.5
		C992.8,565.1,992.5,566.9,992.4,568.9z"/>
	<path d="M1018.6,588.8v-2.6l3.8-0.5v-26.3l-4.6-1v-2.7l7.6-1l1.3,1v2.6l-0.1,1.5c0.9-0.8,2-1.5,3.4-2.3s2.9-1.5,4.5-2
		c1.6-0.5,3.1-0.8,4.5-0.8c2.1,0,3.8,0.4,5.1,1.1s2.3,1.8,3,3.4c0.7-0.6,1.8-1.2,3.1-1.9c1.4-0.7,2.8-1.3,4.4-1.8s3.1-0.7,4.5-0.7
		c1.9,0,3.5,0.3,4.7,0.8s2.2,1.4,2.9,2.5c0.7,1.1,1.2,2.6,1.5,4.3c0.3,1.8,0.4,3.9,0.4,6.3v17l4.6,0.5v2.6h-13.4v-2.6l4.1-0.5v-16.9
		c0-2.3-0.2-4.2-0.5-5.8c-0.4-1.6-1-2.7-2.1-3.5c-1-0.8-2.6-1.2-4.6-1.2c-1.1,0-2.1,0.2-3.3,0.5c-1.1,0.3-2.2,0.7-3.1,1.2
		c-1,0.5-1.8,1-2.5,1.5c0.1,0.6,0.3,1.3,0.3,2.1s0.2,1.5,0.2,2.4c0,0.9,0.1,1.8,0.1,2.7v16.9l4.6,0.5v2.6h-13.7v-2.6l4.3-0.5v-17
		c0-2.3-0.1-4.2-0.4-5.8c-0.3-1.5-0.9-2.7-1.8-3.4s-2.3-1.1-4.3-1.1c-1.7,0-3.4,0.4-5.2,1.3c-1.8,0.8-3.3,1.7-4.6,2.7v23.3l4.3,0.5
		v2.6H1018.6z"/>
	<path d="M1076.9,588.8v-2.6l5.3-0.5v-26.3l-4.7-1v-2.7l8.2-1h0.1l1.2,1v30.1l5.2,0.4v2.6H1076.9z M1084.2,549.2
		c-1.1,0-1.9-0.3-2.5-1c-0.6-0.7-0.8-1.5-0.8-2.5s0.3-1.9,0.9-2.7c0.6-0.8,1.6-1.2,2.8-1.2h0.1c1.1,0,1.9,0.3,2.5,1
		c0.6,0.7,0.8,1.5,0.8,2.5c0,1-0.3,1.9-0.9,2.7C1086.5,548.8,1085.6,549.2,1084.2,549.2L1084.2,549.2z"/>
	<path d="M1104.9,589.5c-2,0-3.5-0.5-4.7-1.4c-1.2-0.9-1.7-2.7-1.7-5.3v-23.6h-4.6v-2.4c0.4-0.1,0.8-0.2,1.3-0.3
		c0.5-0.1,0.9-0.2,1.3-0.3c0.4-0.1,0.7-0.2,0.9-0.3c0.2-0.1,0.4-0.3,0.6-0.5c0.2-0.2,0.3-0.4,0.4-0.6s0.3-0.5,0.4-0.9
		c0.2-0.5,0.4-1.2,0.6-2.2s0.5-1.9,0.7-2.8s0.4-1.5,0.5-1.9h2.7v8.5h10.7v3.6h-10.7v19.4c0,2.2,0.1,3.8,0.3,4.8
		c0.2,1,0.5,1.6,1.1,1.9c0.5,0.3,1.4,0.4,2.5,0.4c1.2,0,2.6-0.2,4-0.5c1.4-0.3,2.5-0.7,3.1-1l0.8,2.3c-0.6,0.4-1.4,0.9-2.5,1.4
		c-1.1,0.5-2.3,0.9-3.6,1.2S1106.2,589.5,1104.9,589.5z"/>
	<path d="M1116.7,571.9c0-2.7,0.4-5.2,1.3-7.3c0.9-2.1,2-4,3.5-5.4c1.5-1.5,3.1-2.6,5-3.4c1.8-0.8,3.7-1.2,5.6-1.2
		c3.6,0,6.5,0.8,8.6,2.4c2.2,1.6,3.7,3.7,4.7,6.4c1,2.7,1.5,5.6,1.5,8.7c0,2.7-0.4,5.2-1.3,7.3c-0.9,2.2-2,4-3.5,5.5
		c-1.5,1.5-3.1,2.6-5,3.4c-1.8,0.8-3.7,1.2-5.6,1.2c-2.7,0-5-0.5-6.9-1.4c-1.9-0.9-3.4-2.2-4.6-3.8c-1.2-1.6-2-3.5-2.6-5.6
		C1116.9,576.5,1116.7,574.3,1116.7,571.9z M1131.8,586.3c2,0,3.8-0.5,5.2-1.6c1.4-1,2.5-2.6,3.3-4.7c0.8-2.1,1.2-4.6,1.2-7.7
		c0-2-0.2-3.9-0.5-5.6c-0.4-1.8-0.9-3.4-1.7-4.7s-1.7-2.4-3-3.2s-2.7-1.2-4.5-1.2c-2,0-3.8,0.5-5.2,1.6c-1.5,1-2.6,2.6-3.3,4.6
		c-0.8,2-1.2,4.6-1.2,7.7c0,2,0.2,3.9,0.5,5.7s0.9,3.4,1.7,4.7c0.8,1.4,1.8,2.4,3,3.2C1128.5,586,1130,586.3,1131.8,586.3z"/>
	<path d="M1150.9,588.8v-2.5l4.8-0.4v-26.5l-4.6-1v-2.7l7.6-1h0.1l1.1,1v1l-0.1,5.3h0.1c0.2-0.2,0.5-0.7,1.1-1.4
		c0.5-0.7,1.3-1.5,2.2-2.4c0.9-0.9,2.1-1.6,3.5-2.2c1.4-0.6,2.9-0.9,4.7-0.9c0.6,0,1,0,1.3,0.1c0.3,0,0.6,0.1,0.8,0.2v5
		c-0.1-0.1-0.5-0.2-1-0.3c-0.5-0.1-1.2-0.2-2.1-0.2c-1.9,0-3.4,0.2-4.7,0.7c-1.2,0.5-2.3,1.1-3.1,1.7s-1.6,1.2-2.2,1.6v22l8,0.5v2.5
		H1150.9z"/>
	<path d="M1177.1,588.8v-2.6l5.3-0.5v-26.3l-4.7-1v-2.7l8.2-1h0.1l1.2,1v30.1l5.2,0.4v2.6H1177.1z M1184.5,549.2
		c-1.1,0-1.9-0.3-2.5-1c-0.6-0.7-0.8-1.5-0.8-2.5s0.3-1.9,0.9-2.7c0.6-0.8,1.6-1.2,2.8-1.2h0.1c1.1,0,1.9,0.3,2.5,1
		c0.6,0.7,0.8,1.5,0.8,2.5c0,1-0.3,1.9-0.9,2.7C1186.8,548.8,1185.8,549.2,1184.5,549.2L1184.5,549.2z"/>
	<path d="M1195.6,571.9c0-2.7,0.4-5.2,1.3-7.3c0.9-2.1,2-4,3.5-5.4c1.5-1.5,3.1-2.6,5-3.4c1.8-0.8,3.7-1.2,5.6-1.2
		c3.6,0,6.5,0.8,8.6,2.4c2.2,1.6,3.7,3.7,4.7,6.4c1,2.7,1.5,5.6,1.5,8.7c0,2.7-0.4,5.2-1.3,7.3c-0.9,2.2-2,4-3.5,5.5
		c-1.5,1.5-3.1,2.6-5,3.4c-1.8,0.8-3.7,1.2-5.6,1.2c-2.7,0-5-0.5-6.9-1.4c-1.9-0.9-3.4-2.2-4.6-3.8c-1.2-1.6-2-3.5-2.6-5.6
		C1195.9,576.5,1195.6,574.3,1195.6,571.9z M1210.8,586.3c2,0,3.8-0.5,5.2-1.6c1.4-1,2.5-2.6,3.3-4.7c0.8-2.1,1.2-4.6,1.2-7.7
		c0-2-0.2-3.9-0.5-5.6c-0.3-1.8-0.9-3.4-1.6-4.7s-1.7-2.4-3-3.2s-2.7-1.2-4.5-1.2c-2,0-3.8,0.5-5.2,1.6s-2.6,2.6-3.3,4.6
		c-0.8,2-1.2,4.6-1.2,7.7c0,2,0.2,3.9,0.5,5.7c0.4,1.8,0.9,3.4,1.7,4.7c0.8,1.4,1.8,2.4,3,3.2C1207.5,586,1209,586.3,1210.8,586.3z"
		/>
</g>
<g>
	<path d="M939.5,658.7c-1.3,0-2.6-0.3-3.9-0.8c-1.2-0.5-2.3-1.3-3.3-2.4c-1-1.1-1.7-2.4-2.3-4c-0.6-1.6-0.8-3.6-0.8-5.8
		c0-2.7,0.5-5.1,1.6-7.3c1.1-2.2,2.6-3.9,4.7-5.2c2-1.3,4.4-1.9,7.2-1.9c0.9,0,1.8,0.1,2.7,0.2c0.9,0.1,1.6,0.2,2.3,0.4v-9.4
		l-4.9-0.5v-1.7l7.7-0.8h0.1l0.9,0.7V656h2.9v1.8c-0.6,0.1-1.3,0.3-2.1,0.5c-0.8,0.2-1.6,0.2-2.5,0.2c-0.6,0-1.1-0.1-1.5-0.3
		c-0.3-0.2-0.5-0.8-0.5-1.7v-1.7c-0.6,0.6-1.2,1.2-2,1.8s-1.7,1.1-2.8,1.4C941.9,658.5,940.8,658.7,939.5,658.7z M941,655.7
		c1,0,1.9-0.2,2.8-0.5c0.9-0.3,1.6-0.7,2.3-1.2s1.2-0.9,1.5-1.4v-17.4c-0.3-0.4-0.9-0.8-1.9-1.1c-1-0.3-2.2-0.5-3.4-0.5
		c-1.7,0-3.2,0.4-4.5,1.2c-1.3,0.8-2.4,2-3.2,3.7s-1.2,3.9-1.2,6.5c0,2.6,0.3,4.6,1,6.2c0.7,1.6,1.7,2.7,2.8,3.4
		C938.3,655.3,939.6,655.7,941,655.7z"/>
	<path d="M968.9,658.7c-2.5,0-4.6-0.6-6.3-1.7c-1.7-1.2-3-2.8-3.8-4.9c-0.9-2.1-1.3-4.5-1.3-7.1c0-2,0.3-3.9,0.9-5.6
		c0.6-1.7,1.5-3.1,2.5-4.3c1.1-1.2,2.4-2.1,3.8-2.8c1.5-0.7,3.1-1,4.8-1c2.8,0,5,0.8,6.5,2.4c1.6,1.6,2.4,3.9,2.5,7
		c0,0.9,0,1.7,0,2.4c0,0.7-0.1,1.3-0.2,1.8h-16.8c0,1.6,0.2,3.1,0.5,4.4c0.4,1.4,0.9,2.6,1.6,3.6c0.7,1,1.6,1.8,2.7,2.4
		c1.1,0.6,2.3,0.8,3.7,0.8c1.4,0,2.7-0.2,4.1-0.7c1.4-0.5,2.4-1,3.2-1.7l0.8,1.7c-0.6,0.6-1.4,1.2-2.4,1.7c-1,0.5-2.1,0.9-3.3,1.2
		C971.3,658.5,970.1,658.7,968.9,658.7z M961.6,642.5h12.8c0-0.3,0.1-0.6,0.1-1c0-0.4,0-0.8,0-1.1c0-1.9-0.5-3.6-1.4-4.9
		s-2.4-1.9-4.5-1.9c-0.9,0-1.8,0.2-2.6,0.5c-0.8,0.3-1.5,0.8-2.1,1.5c-0.6,0.7-1.1,1.6-1.5,2.7S961.7,640.9,961.6,642.5z"/>
	<path d="M1004.8,658.7c-1.7,0-3.2-0.2-4.6-0.5c-1.4-0.3-2.5-0.7-3.5-1.1c-1-0.4-1.7-0.6-2.2-0.6l0.4-8.4h2.5l0.7,6.2
		c0.4,0.3,0.9,0.7,1.6,1c0.7,0.3,1.5,0.6,2.4,0.8c0.9,0.2,1.9,0.3,2.9,0.3c1.9,0,3.4-0.3,4.6-0.8c1.2-0.5,2-1.3,2.5-2.3
		c0.5-1,0.8-2.1,0.8-3.5c0-1.4-0.4-2.5-1.1-3.5c-0.7-0.9-1.8-1.7-3-2.4c-1.3-0.7-2.7-1.3-4.3-2c-1-0.4-2-0.9-3.1-1.5
		c-1.1-0.6-2.1-1.2-3.1-2c-1-0.8-1.8-1.8-2.4-2.9c-0.6-1.1-0.9-2.4-0.9-4c0-1.8,0.5-3.3,1.4-4.6c0.9-1.3,2.2-2.4,3.9-3.1
		c1.7-0.7,3.6-1.1,5.9-1.1c1.1,0,2,0.1,3,0.2s1.8,0.3,2.6,0.5c0.8,0.2,1.4,0.4,2,0.6c0.6,0.2,1,0.3,1.4,0.4l-0.3,7.7h-2.4l-0.9-5.9
		c-0.2-0.2-0.6-0.4-1.2-0.6c-0.6-0.2-1.2-0.4-2-0.5s-1.6-0.2-2.5-0.2c-1.6,0-2.9,0.2-4,0.6s-1.9,1.1-2.4,1.9
		c-0.5,0.9-0.8,1.9-0.8,3.2c0,1.4,0.3,2.6,1,3.5c0.7,0.9,1.6,1.6,2.9,2.3c1.2,0.6,2.7,1.3,4.3,2.1c1.2,0.5,2.3,1.1,3.5,1.7
		s2.3,1.3,3.3,2.1c1,0.8,1.8,1.7,2.4,2.8c0.6,1.1,0.9,2.3,0.9,3.7c0,1.2-0.3,2.4-0.8,3.6c-0.5,1.2-1.3,2.2-2.3,3.2
		c-1,1-2.3,1.7-3.8,2.3C1008.7,658.4,1006.9,658.7,1004.8,658.7z"/>
	<path d="M1028.9,658.7c-1.4,0-2.7-0.3-3.9-0.8s-2.2-1.3-2.9-2.4c-0.7-1.1-1.1-2.5-1.1-4.2c0-1.7,0.5-3,1.4-4.2
		c0.9-1.1,2.1-2,3.6-2.7c1.5-0.7,3.2-1.2,5.1-1.5c1.9-0.3,3.8-0.5,5.7-0.5v-2c0-1.6-0.2-2.8-0.5-3.6c-0.3-0.9-0.9-1.5-1.7-1.8
		s-2-0.5-3.4-0.5c-1.8,0-3.5,0.3-4.9,0.9c-1.4,0.6-2.5,1.1-3.2,1.6l-1-2.1c0.3-0.3,0.9-0.7,2-1.2c1-0.6,2.3-1.1,3.7-1.5
		c1.4-0.5,2.9-0.7,4.4-0.7c2.1,0,3.8,0.3,5,0.9s2.1,1.6,2.7,2.9s0.8,3.1,0.8,5.3V656h2.9v1.7c-0.3,0.1-0.8,0.2-1.3,0.3
		c-0.5,0.1-1,0.2-1.6,0.3c-0.6,0.1-1.1,0.1-1.5,0.1c-0.7,0-1.2-0.1-1.5-0.3c-0.3-0.2-0.5-0.8-0.5-1.7v-1.7c-0.4,0.3-1,0.8-1.8,1.4
		c-0.8,0.6-1.7,1.2-2.8,1.7C1031.4,658.4,1030.2,658.7,1028.9,658.7z M1030.3,655.9c0.9,0,2-0.3,3.3-0.8c1.2-0.6,2.3-1.2,3.3-2v-8.4
		c-2.6,0-4.8,0.3-6.5,0.8s-3,1.2-3.8,2.2c-0.9,0.9-1.3,2-1.3,3.2c0,1.3,0.2,2.3,0.7,3c0.4,0.7,1.1,1.3,1.8,1.6
		S1029.4,655.9,1030.3,655.9z"/>
	<path d="M1049.7,655.7v-20.7l-3.6-0.8v-2.1l6-0.8h0.1l0.9,0.8v2.1l0,1.2c0.7-0.6,1.6-1.2,2.7-1.8c1.1-0.6,2.3-1.2,3.6-1.6
		s2.5-0.6,3.7-0.6c2,0,3.6,0.4,4.7,1.2c1.1,0.8,1.8,2,2.2,3.6c0.4,1.6,0.6,3.7,0.6,6.3v13.4l3.5,0.3v2h-10.5v-2l3.2-0.3v-13.4
		c0-1.8-0.1-3.3-0.4-4.5s-0.8-2.1-1.5-2.7c-0.8-0.6-1.9-0.9-3.4-0.9c-0.9,0-1.8,0.2-2.8,0.5c-1,0.3-1.9,0.7-2.8,1.2
		c-0.9,0.5-1.7,1-2.3,1.5v18.3l3.4,0.4v2h-10.4v-2L1049.7,655.7z"/>
	<path d="M1086.1,664.6c0.9-0.3,1.8-0.7,2.7-1.2c0.8-0.6,1.6-1.2,2.2-2c0.6-0.8,1.1-1.7,1.5-2.8c0.3-0.9,0.5-1.8,0.6-2.9
		c0.1-1,0.2-2.3,0.3-3.8c0-1.5,0.1-3.4,0.1-5.8v-20.5l-4.8-0.6v-2h13.2v2l-4.5,0.6v19.5c0,2.6,0,4.9,0,6.9s-0.2,3.7-0.5,5.1
		c-0.4,1.8-1,3.3-2.1,4.6c-1,1.3-2.2,2.3-3.5,3s-2.7,1.3-4,1.5L1086.1,664.6z"/>
	<path d="M1103.8,644.9c0-2.2,0.3-4.1,1-5.8c0.7-1.7,1.6-3.1,2.8-4.3s2.5-2.1,3.9-2.7c1.4-0.6,2.9-0.9,4.4-0.9
		c2.8,0,5.1,0.6,6.8,1.9c1.7,1.3,2.9,2.9,3.7,5c0.8,2.1,1.2,4.4,1.2,6.8c0,2.1-0.3,4.1-1,5.8c-0.7,1.7-1.6,3.1-2.8,4.3
		c-1.2,1.2-2.5,2.1-3.9,2.7s-2.9,0.9-4.4,0.9c-2.1,0-3.9-0.4-5.4-1.1c-1.5-0.7-2.7-1.7-3.6-3c-0.9-1.3-1.6-2.7-2-4.4
		C1104,648.5,1103.8,646.7,1103.8,644.9z M1115.7,656.2c1.6,0,3-0.4,4.1-1.2c1.1-0.8,2-2,2.6-3.7c0.6-1.6,0.9-3.6,0.9-6
		c0-1.6-0.1-3-0.4-4.4c-0.3-1.4-0.7-2.6-1.3-3.7c-0.6-1.1-1.4-1.9-2.3-2.5c-1-0.6-2.1-0.9-3.5-0.9c-1.6,0-3,0.4-4.1,1.2
		s-2,2-2.6,3.6c-0.6,1.6-0.9,3.6-0.9,6c0,1.6,0.1,3.1,0.4,4.5c0.3,1.4,0.7,2.6,1.3,3.7s1.4,1.9,2.3,2.5
		C1113.1,655.9,1114.3,656.2,1115.7,656.2z"/>
	<path d="M1139.8,658.7c-1,0-2-0.1-3.2-0.3c-1.1-0.2-2.2-0.5-3.1-0.8c-1-0.3-1.7-0.6-2.2-0.9v-6h2.5l0.7,3.7c0.2,0.3,0.6,0.7,1.2,1
		c0.6,0.3,1.3,0.6,2,0.8c0.8,0.2,1.6,0.3,2.5,0.3c1.4,0,2.5-0.2,3.4-0.5s1.5-0.9,1.8-1.5c0.4-0.6,0.6-1.4,0.6-2.2
		c0-0.9-0.3-1.7-0.8-2.4c-0.5-0.7-1.3-1.2-2.4-1.8c-1-0.5-2.4-1.1-3.9-1.7c-1.6-0.6-3-1.3-4.1-2c-1.1-0.7-1.9-1.6-2.4-2.6
		s-0.8-2.2-0.8-3.7c0-1.4,0.4-2.6,1.3-3.6c0.8-1,2-1.8,3.4-2.3c1.4-0.5,2.9-0.8,4.5-0.8c1.2,0,2.3,0.1,3.3,0.3
		c1,0.2,1.8,0.4,2.5,0.6c0.7,0.2,1.2,0.4,1.5,0.5v5.6h-2.3l-0.8-3.4c-0.2-0.3-0.5-0.5-0.9-0.8c-0.5-0.2-1-0.4-1.6-0.5
		s-1.3-0.2-1.9-0.2c-1.1,0-2,0.1-2.8,0.4c-0.8,0.3-1.4,0.8-1.8,1.3s-0.6,1.2-0.6,2c0,1.2,0.3,2.1,0.9,2.8c0.6,0.7,1.4,1.3,2.3,1.7
		c1,0.4,1.9,0.9,3,1.3c1,0.4,2,0.9,3,1.3c1,0.5,1.8,1,2.6,1.6s1.4,1.3,1.8,2.1c0.5,0.8,0.7,1.8,0.7,3c0,1.6-0.4,2.9-1.2,4
		c-0.8,1.1-2,2-3.4,2.6C1143.5,658.4,1141.8,658.7,1139.8,658.7z"/>
	<path d="M1164.7,658.7c-2.5,0-4.6-0.6-6.3-1.7s-3-2.8-3.8-4.9c-0.9-2.1-1.3-4.5-1.3-7.1c0-2,0.3-3.9,0.9-5.6
		c0.6-1.7,1.5-3.1,2.5-4.3c1.1-1.2,2.4-2.1,3.8-2.8c1.5-0.7,3.1-1,4.8-1c2.8,0,5,0.8,6.5,2.4c1.6,1.6,2.4,3.9,2.5,7
		c0,0.9,0,1.7,0,2.4c0,0.7-0.1,1.3-0.2,1.8h-16.8c0,1.6,0.2,3.1,0.5,4.4c0.4,1.4,0.9,2.6,1.6,3.6c0.7,1,1.6,1.8,2.7,2.4
		c1.1,0.6,2.3,0.8,3.7,0.8c1.4,0,2.7-0.2,4.1-0.7c1.4-0.5,2.4-1,3.2-1.7l0.8,1.7c-0.6,0.6-1.4,1.2-2.4,1.7c-1,0.5-2.1,0.9-3.3,1.2
		C1167.1,658.5,1165.9,658.7,1164.7,658.7z M1157.4,642.5h12.8c0-0.3,0.1-0.6,0.1-1c0-0.4,0-0.8,0-1.1c0-1.9-0.5-3.6-1.4-4.9
		s-2.4-1.9-4.5-1.9c-0.9,0-1.8,0.2-2.6,0.5c-0.8,0.3-1.5,0.8-2.1,1.5c-0.6,0.7-1.1,1.6-1.5,2.7S1157.5,640.9,1157.4,642.5z
		 M1164,627.5l-1.5-1.3l7.3-9.1l3.2,2.6c-0.3,0.5-0.8,1.1-1.6,1.9c-0.7,0.8-1.6,1.6-2.5,2.4s-1.8,1.5-2.7,2.2
		C1165.3,626.8,1164.6,627.2,1164,627.5L1164,627.5z"/>
</g>
</svg>
